<?xml version="1.0" encoding="UTF-8"?>
<svg width="27px" height="12px" viewBox="0 0 27 12" version="1.1" xmlns="http://www.w3.org/2000/svg" xmlns:xlink="http://www.w3.org/1999/xlink">
    <title>new</title>
    <g id="页面-1" stroke="none" stroke-width="1" fill="none" fill-rule="evenodd">
        <g id="工作台" transform="translate(-416.000000, -961.000000)" fill="#EE502F" fill-rule="nonzero">
            <g id="不同状态下的项目数量备份-2" transform="translate(16.000000, 900.000000)">
                <g id="列表项" transform="translate(24.000000, 56.000000)">
                    <g id="new" transform="translate(376.000000, 5.000000)">
                        <path d="M6.33600737,0.192008602 L20.592024,0.192008602 C23.8128277,0.192008602 26.4000307,2.77921161 26.4000307,6.00001536 C26.4000307,9.22081911 23.8128277,11.8080221 20.592024,11.8080221 L0,11.8080221 L0,6.52801597 C0,3.04321192 2.85120332,0.192008602 6.33600737,0.192008602 Z M9.76801137,9.16801905 L9.76801137,3.14881204 L8.97601044,3.14881204 L8.97601044,7.74241739 L6.07200707,3.14881204 L5.28000614,3.14881204 L5.28000614,9.16801905 L6.07200707,9.16801905 L6.07200707,4.5744137 L8.97601044,9.16801905 L9.76801137,9.16801905 Z M14.4672168,6.36961579 L14.4672168,5.73601505 L11.9856139,5.73601505 L11.9856139,3.78241278 L14.8368173,3.78241278 L14.8368173,3.14881204 L11.193613,3.14881204 L11.193613,9.16801905 L14.8896173,9.16801905 L14.8896173,8.53441831 L11.9856139,8.53441831 L11.9856139,6.36961579 L14.4672168,6.36961579 Z M17.0544198,7.10881665 L16.1568188,3.2016121 L15.2592178,3.2016121 L16.6848194,9.22081911 L17.4240203,9.22081911 L18.6384217,5.04961425 L18.7440218,4.52161364 L18.8496219,5.04961425 L20.0640233,9.22081911 L20.8032242,9.22081911 L22.2816259,3.2016121 L21.3840249,3.2016121 L20.5392239,7.10881665 L20.4336238,7.90081757 L20.2752236,7.10881665 L19.2192224,3.2016121 L18.4272214,3.2016121 L17.3712202,7.10881665 L17.21282,7.90081757 L17.0544198,7.10881665 Z" id="形状"></path>
                    </g>
                </g>
            </g>
        </g>
    </g>
</svg>