<?xml version="1.0" encoding="UTF-8"?>
<svg width="24px" height="24px" viewBox="0 0 24 24" version="1.1" xmlns="http://www.w3.org/2000/svg" xmlns:xlink="http://www.w3.org/1999/xlink">
    <title>下拉</title>
    <g id="页面-1" stroke="none" stroke-width="1" fill="none" fill-rule="evenodd" opacity="0.201497396">
        <g id="工作台" transform="translate(-460.000000, -645.000000)" fill="#4F6287">
            <g id="不同状态下的项目数量备份" transform="translate(16.000000, 440.000000)">
                <g id="编组-8" transform="translate(0.000000, 56.000000)">
                    <g id="矩形-2" transform="translate(444.000000, 149.000000)">
                        <path d="M3.22669775,9.38501718 L12,13 L12,13 L20.61732,9.39508264 C21.0523437,9.21309748 21.5525282,9.41822572 21.7345133,9.85324938 C21.7543515,9.9006711 21.7698666,9.94978743 21.7808697,10 C21.907309,10.5770049 21.5979402,11.1608239 21.0494928,11.3802029 L12,15 L12,15 L2.9383396,11.3753358 C2.38803094,11.1552124 2.06043501,10.5864707 2.14614443,10 C2.20911482,9.56912223 2.60945785,9.27087436 3.04033563,9.33384475 C3.1043197,9.34319566 3.16691046,9.36038221 3.22669775,9.38501718 Z" id="矩形"></path>
                    </g>
                </g>
            </g>
        </g>
    </g>
</svg>