<?xml version="1.0" encoding="UTF-8"?>
<svg width="14px" height="14px" viewBox="0 0 14 14" version="1.1" xmlns="http://www.w3.org/2000/svg" xmlns:xlink="http://www.w3.org/1999/xlink">
    <title>关闭</title>
    <g id="页面-1" stroke="none" stroke-width="1" fill="none" fill-rule="evenodd">
        <g id="工作台弹窗1" transform="translate(-1238.000000, -171.000000)" fill="#848C9A">
            <g id="穿梭框备份" transform="translate(320.000000, 150.000000)">
                <path d="M931.785795,21.2142055 C932.042841,21.4712521 932.068546,21.8720361 931.862908,22.1578302 L931.785795,22.2484811 L926.033284,28 L931.785795,33.7515189 C932.071402,34.0371262 932.071402,34.5001872 931.785795,34.7857945 C931.528748,35.0428411 931.127964,35.0685458 930.84217,34.8629085 L930.751519,34.7857945 L925,29.0332836 L919.248481,34.7857945 C918.962874,35.0714018 918.499813,35.0714018 918.214205,34.7857945 C917.957159,34.5287479 917.931454,34.1279639 918.137092,33.8421698 L918.214205,33.7515189 L923.966716,28 L918.214205,22.2484811 C917.928598,21.9628738 917.928598,21.4998128 918.214205,21.2142055 C918.471252,20.9571589 918.872036,20.9314542 919.15783,21.1370915 L919.248481,21.2142055 L925,26.9667164 L930.751519,21.2142055 C931.037126,20.9285982 931.500187,20.9285982 931.785795,21.2142055 Z" id="关闭"></path>
            </g>
        </g>
    </g>
</svg>