<?xml version="1.0" encoding="UTF-8"?>
<svg width="18px" height="18px" viewBox="0 0 18 18" version="1.1" xmlns="http://www.w3.org/2000/svg" xmlns:xlink="http://www.w3.org/1999/xlink">
    <title>功能</title>
    <g id="页面-1" stroke="none" stroke-width="1" fill="none" fill-rule="evenodd">
        <g id="工作台弹窗1" transform="translate(-1189.000000, -328.000000)">
            <g id="编组-23" transform="translate(320.000000, 150.000000)">
                <g id="编组-15" transform="translate(581.000000, 108.000000)">
                    <g id="人员备份" transform="translate(0.000000, 53.000000)">
                        <g id="功能" transform="translate(288.000000, 17.000000)">
                            <rect id="矩形" x="0" y="0" width="18" height="18"></rect>
                            <path d="M13.9117647,12.8235294 C14.2366381,12.8235294 14.5,13.0868913 14.5,13.4117647 C14.5,13.7366381 14.2366381,14 13.9117647,14 L4.08823529,14 C3.76336191,14 3.5,13.7366381 3.5,13.4117647 C3.5,13.0868913 3.76336191,12.8235294 4.08823529,12.8235294 L13.9117647,12.8235294 Z M13.9117647,8.41176471 C14.2366381,8.41176471 14.5,8.67512662 14.5,9 C14.5,9.32487338 14.2366381,9.58823529 13.9117647,9.58823529 L4.08823529,9.58823529 C3.76336191,9.58823529 3.5,9.32487338 3.5,9 C3.5,8.67512662 3.76336191,8.41176471 4.08823529,8.41176471 L13.9117647,8.41176471 Z M13.9117647,4 C14.2366381,4 14.5,4.26336191 14.5,4.58823529 C14.5,4.91310868 14.2366381,5.17647059 13.9117647,5.17647059 L4.08823529,5.17647059 C3.76336191,5.17647059 3.5,4.91310868 3.5,4.58823529 C3.5,4.26336191 3.76336191,4 4.08823529,4 L13.9117647,4 Z" id="形状结合" fill="#878D99"></path>
                        </g>
                    </g>
                </g>
            </g>
        </g>
    </g>
</svg>