<?xml version="1.0" encoding="UTF-8"?>
<svg width="61px" height="60px" viewBox="0 0 61 60" version="1.1" xmlns="http://www.w3.org/2000/svg" xmlns:xlink="http://www.w3.org/1999/xlink">
    <title>协同办公 系统</title>
    <g id="页面-1" stroke="none" stroke-width="1" fill="none" fill-rule="evenodd">
        <g id="工作台" transform="translate(-968.000000, -525.000000)" fill-rule="nonzero">
            <g id="不同项目类型项目数量占比" transform="translate(944.000000, 96.000000)">
                <g id="协同办公-系统" transform="translate(24.000000, 429.000000)">
                    <rect id="矩形" fill="#F5F8FC" x="0" y="0" width="61" height="60" rx="9"></rect>
                    <g id="流转,协作,循环,环形,协同,流程,节点" transform="translate(12.000000, 11.000000)">
                        <path d="M35.5335757,14.1666826 L34.3884273,17.617876 L33.5901805,20.0318459 C33.5528792,20.1400455 33.4148646,20.1698937 33.336532,20.0840802 L32.1354317,18.737182 L29.2296642,15.4688086 C29.1550617,15.3829951 29.1998232,15.2449474 29.3117269,15.2225613 L30.3636222,15.0061621 C30.7478251,14.9278107 30.952982,14.5024744 30.773936,14.1517585 C30.1137038,12.8347085 29.2520449,11.6407821 28.2001497,10.5886345 C27.1034929,9.49171466 25.8464407,8.59626988 24.4625643,7.92841732 C24.365581,7.87991406 24.1641543,7.79036958 23.9589974,7.70455612 C23.6755079,7.58143247 23.3472569,7.69709409 23.1980518,7.96572752 C22.2879013,9.62230036 20.5235521,10.7453374 18.4980942,10.7453374 C16.2786697,10.7453374 14.3763059,9.40217019 13.5556784,7.48069493 C13.2796491,6.83149746 13.126714,6.11887266 13.126714,5.37266868 C13.126714,5.27939318 13.1304441,5.18611768 13.1341742,5.09284218 C13.2796491,2.25726705 15.6258978,0 18.4980942,0 C21.2509265,0 23.5188426,2.07071605 23.8321731,4.73839529 C23.858284,4.95852547 24.007489,5.14507646 24.216376,5.22342788 C28.2934028,6.77180115 31.579643,9.92451297 33.2992307,13.9129733 C33.4111345,14.1741447 33.6908939,14.3196544 33.9669231,14.2599581 L35.3619899,13.9726696 C35.4776238,13.9502835 35.5708769,14.058483 35.5335757,14.1666826 L35.5335757,14.1666826 Z M36.9997606,27.5125409 C36.9696738,30.5160119 34.4518394,32.9262508 31.4490886,32.8292442 C30.7963167,32.8068581 30.1696557,32.6688104 29.5952165,32.4337561 C29.3863294,32.3479427 29.1513316,32.3889839 28.9797458,32.5344937 C26.1635013,34.9559256 22.5005184,36.4147544 18.4980942,36.4147544 C17.7595294,36.4147544 17.0358851,36.3662511 16.3234312,36.2692446 C16.047402,36.2319344 15.7862932,36.3886372 15.6855798,36.6460776 L15.2006636,37.9034313 C15.1596322,38.0116309 15.0178874,38.034017 14.947015,37.9444725 L12.9066366,35.4185721 L11.0639548,33.1389189 C10.9930824,33.0493744 11.0453042,32.9150577 11.1572079,32.8964026 L12.5522747,32.6762724 L17.2596926,31.9337995 C17.3715964,31.9151444 17.4648495,32.027075 17.4238181,32.1352745 L17.0209646,33.1836911 C16.8754897,33.5605241 17.1365985,33.9672053 17.539452,33.9933224 C17.8565127,34.0157086 18.1773034,34.0269016 18.4980942,34.0269016 C20.3519664,34.0269016 22.1498867,33.6649927 23.8396334,32.9486369 C24.9586709,32.4747973 25.9993758,31.8629101 26.9468276,31.1204371 C27.1892857,30.9301551 27.2452376,30.5869013 27.0811121,30.3257299 C26.5588946,29.4974434 26.2530243,28.5124542 26.2530243,27.4603066 C26.2530243,24.4941457 28.658955,22.0876379 31.6244045,22.0876379 C31.7847999,22.0876379 31.9451953,22.0950999 32.1018605,22.110024 C32.9374086,22.1846444 33.7207349,22.4495468 34.4033478,22.86369 C35.9737304,23.8113691 37.0181655,25.5425623 36.9997606,27.5125409 L36.9997606,27.5125409 Z M5.84923984,14.9539278 C5.13305581,16.6440798 4.77123367,18.4424314 4.77123367,20.2967483 C4.77123367,20.7183536 4.7898843,21.1399588 4.82718555,21.5541021 C4.85329643,21.8600457 5.10694494,22.098831 5.41654532,22.098831 C5.64035283,22.102562 5.86789046,22.106293 5.96487372,22.1174861 C8.65056381,22.4159677 10.7394339,24.6918898 10.7394339,27.4565756 C10.7394339,28.6990052 10.3179298,29.8444283 9.60920597,30.7547972 C9.10936921,31.3965326 8.46778768,31.9226064 7.73295303,32.2845153 C7.06899076,32.6091141 6.33042598,32.8031271 5.55082983,32.8255132 C2.54807909,32.9225197 0.0302446249,30.5122809 0.000403623853,27.5088098 C-0.021977127,25.669417 0.888173406,24.0389613 2.28697033,23.0577031 C2.46974646,22.9308484 2.56299959,22.7107182 2.53315859,22.486857 C2.43617534,21.7705012 2.38395359,21.0392213 2.38395359,20.2930173 C2.38395359,16.5358803 3.66711663,13.0809558 5.82312896,10.3386562 C5.99471472,10.118526 5.99098459,9.80885136 5.81939884,9.5924522 L4.89059768,8.44702909 C4.8197253,8.35748461 4.86821693,8.22316789 4.98385081,8.20451279 L8.50881906,7.64485981 L11.0826054,7.23444762 C11.1945092,7.21579252 11.2877623,7.32772311 11.2467309,7.43592269 L10.6349904,9.03653023 L9.03849683,13.2078105 C8.99746545,13.3160101 8.8557207,13.3383962 8.78484832,13.2488517 L8.15072705,12.4653375 C7.90080866,12.1556629 7.42335264,12.170587 7.19954514,12.4989167 C6.66240712,13.2712378 6.2147921,14.0883312 5.84923984,14.9539278 Z" id="形状" fill="#6699FF"></path>
                        <g id="人-单人" transform="translate(13.000000, 14.000000)" fill="#FF804C" stroke="#FF804C" stroke-width="0.4">
                            <path d="M3.459675,7.23335 C2.49765,6.6011 1.8625,5.512225 1.8625,4.275 C1.8625,2.3212875 3.4462875,0.7375 5.4,0.7375 C7.3537125,0.7375 8.9375,2.3212875 8.9375,4.275 C8.9375,5.512225 8.30235,6.6011 7.340325,7.23335 C9.1026625,7.98725 10.3375,9.7369125 10.3375,11.775 C10.3375,12.07875 10.09125,12.325 9.7875,12.325 C9.48375,12.325 9.2375,12.07875 9.2375,11.775 C9.2375,9.6556125 7.5193875,7.9375 5.4,7.9375 C3.2806125,7.9375 1.5625,9.6556125 1.5625,11.775 C1.5625,12.07875 1.31625,12.325 1.0125,12.325 C0.70875,12.325 0.4625,12.07875 0.4625,11.775 C0.4625,9.7369125 1.6973375,7.98725 3.459675,7.23335 Z M5.4,6.7125 C6.7462,6.7125 7.8375,5.6212 7.8375,4.275 C7.8375,2.9288 6.7462,1.8375 5.4,1.8375 C4.0538,1.8375 2.9625,2.9288 2.9625,4.275 C2.9625,5.6212 4.0538,6.7125 5.4,6.7125 Z" id="形状"></path>
                        </g>
                    </g>
                </g>
            </g>
        </g>
    </g>
</svg>