<?xml version="1.0" encoding="UTF-8"?>
<svg width="56px" height="56px" viewBox="0 0 56 56" version="1.1" xmlns="http://www.w3.org/2000/svg" xmlns:xlink="http://www.w3.org/1999/xlink">
    <title>应用中心</title>
    <defs>
        <linearGradient x1="0%" y1="6.52848795%" x2="100%" y2="93.4715121%" id="linearGradient-1">
            <stop stop-color="#F9AA22" offset="0%"></stop>
            <stop stop-color="#F9A022" offset="100%"></stop>
        </linearGradient>
        <path d="M33.3925926,36.5513514 L5.80740741,36.5513514 C2.61333333,36.5513514 0,34.0208732 0,30.9280665 L0,5.62328482 C0,2.53047817 2.61333333,0 5.80740741,0 L19.4083556,0 C20.3883556,0 21.3131852,0.440022037 21.9128,1.18932474 L23.8974815,3.67200499 C24.1718815,4.01643119 24.5958222,4.21746362 25.0444444,4.21746362 L33.3925926,4.21746362 C36.5866667,4.21746362 39.2,6.74794179 39.2,9.84074844 L39.2,30.9280665 C39.2,34.0208732 36.5866667,36.5513514 33.3925926,36.5513514" id="path-2"></path>
        <linearGradient x1="80.7678862%" y1="86.4515238%" x2="17.882055%" y2="3.17377732%" id="linearGradient-4">
            <stop stop-color="#FFE6C2" offset="0%"></stop>
            <stop stop-color="#FFFFFF" stop-opacity="0" offset="100%"></stop>
        </linearGradient>
    </defs>
    <g id="页面-1" stroke="none" stroke-width="1" fill="none" fill-rule="evenodd">
        <g id="应用中心">
            <g id="Fill-1" transform="translate(5.000000, 11.873514)">
                <mask id="mask-3" fill="white">
                    <use xlink:href="#path-2"></use>
                </mask>
                <use id="Mask" fill="url(#linearGradient-1)" xlink:href="#path-2"></use>
            </g>
            <path d="M44.4844845,43.5513514 L17.9057858,43.5513514 C14.8282523,43.5513514 12.3102703,41.0208732 12.3102703,37.9280665 L12.3102703,12.6232848 C12.3102703,9.53047817 14.8282523,7 17.9057858,7 L31.0104831,7 C31.9547264,7 32.8458122,7.44002204 33.4235492,8.18932474 L35.3358166,10.672005 C35.6002047,11.0164312 36.0086774,11.2174636 36.4409309,11.2174636 L44.4844845,11.2174636 C47.562018,11.2174636 50.08,13.7479418 50.08,16.8407484 L50.08,37.9280665 C50.08,41.0208732 47.562018,43.5513514 44.4844845,43.5513514" id="Fill-1" fill="url(#linearGradient-4)" fill-rule="nonzero" style="mix-blend-mode: multiply;" opacity="0.800000012"></path>
            <g id="fenxi-2" transform="translate(14.800000, 21.000000)" fill="#FFFFFF" fill-rule="nonzero" stroke="#FFFFFF" stroke-width="0.7">
                <path d="M3.94903583,10.6361465 C4.7280543,9.78964457 4.75213645,8.49467873 4.00513011,7.61979765 C3.25812377,6.74491657 1.97538415,6.56576427 1.01725961,7.20250026 C0.0591350624,7.83923626 -0.272503334,9.09124762 0.244778139,10.1187958 C0.762059612,11.146344 1.9652839,11.625685 3.04743451,11.2353192 L5.17241177,14.3550922 C4.51446824,15.0510026 4.36307318,16.0845565 4.79378407,16.9399332 C5.22449495,17.7953099 6.14497779,18.2891372 7.09584283,18.1749586 C8.04670786,18.0607799 8.82411269,17.3630723 9.04007416,16.430044 C9.25603563,15.4970158 8.86425684,14.5286855 8.06026471,14.0083224 L11.2152298,4.542148 C11.4696057,4.5594444 11.7250896,4.53447228 11.9713015,4.46824625 L14.3338658,8.60331554 C13.514027,9.40267387 13.4164515,10.686942 14.1061099,11.6009882 C14.7957684,12.5150345 16.0574983,12.7736909 17.0511752,12.2047308 C18.044852,11.6357706 18.4604643,10.4167005 18.0212761,9.35923986 C17.5820878,8.3017792 16.4251188,7.73583905 15.3207384,8.0382514 L12.9581919,3.90314659 C13.6505372,3.22903661 13.8412128,2.1909789 13.433627,1.31482813 C13.0260413,0.438677367 12.109229,-0.0841764659 11.1476248,0.0111316053 C10.1860206,0.106439676 9.38968126,0.799090162 9.16201289,1.73820326 C8.93434453,2.67731636 9.32507992,3.65774832 10.1362821,4.18283628 L6.98126365,13.6490462 C6.64735919,13.6265972 6.31256673,13.6770303 6.00009359,13.7968497 L3.94903583,10.6361465 Z" id="路径"></path>
            </g>
        </g>
    </g>
</svg>