<?xml version="1.0" encoding="UTF-8"?>
<svg width="13px" height="13px" viewBox="0 0 13 13" version="1.1" xmlns="http://www.w3.org/2000/svg" xmlns:xlink="http://www.w3.org/1999/xlink">
    <title>时间</title>
    <g id="页面-1" stroke="none" stroke-width="1" fill="none" fill-rule="evenodd">
        <g id="工作台" transform="translate(-1094.000000, -231.000000)" fill="#000000" fill-rule="nonzero">
            <g id="不同项目类型项目数量占比" transform="translate(944.000000, 96.000000)">
                <g id="编组-20" transform="translate(24.000000, 66.000000)">
                    <g id="编组-16" transform="translate(86.000000, 0.000000)">
                        <g id="编组-2" transform="translate(1.000000, 0.000000)">
                            <g id="分组-29" transform="translate(39.000000, 66.000000)">
                                <g id="时间" transform="translate(0.000000, 3.000000)">
                                    <rect id="矩形" opacity="0" x="0" y="0" width="12.8" height="12.8"></rect>
                                    <path d="M10.36625,2.4375 C9.30625,1.38125 7.89875,0.79875 6.4025,0.79875 C4.90625,0.79875 3.49875,1.38125 2.44,2.4375 C1.38125,3.495 0.7975,4.9 0.7975,6.39625 C0.7975,7.89125 1.38,9.2975 2.43875,10.355 C3.4975,11.41125 4.90375,11.99375 6.40125,11.99375 C7.89875,11.99375 9.30625,11.41125 10.36625,10.35375 C12.55125,8.1725 12.55125,4.62125 10.36625,2.4375 Z M9.0625,8.41375 C8.9925,8.535 8.88875,8.62125 8.76875,8.65625 C8.7275,8.66875 8.685,8.67375 8.6425,8.67375 C8.5575,8.67375 8.4725,8.65 8.3925,8.605 L6.455,7.43375 C6.39,7.3975 6.31,7.35375 6.2675,7.2975 C6.02125,7.155 5.8975,7.0075 5.8975,6.85875 L5.8975,3.6275 C5.8975,3.34 6.13125,3.1075 6.41875,3.1075 C6.70625,3.1075 6.94,3.34125 6.94,3.6275 L6.94,6.6125 L8.8275,7.7025 C9.095,7.8575 9.2,8.17625 9.0625,8.41375 Z" id="形状" fill-opacity="0.2"></path>
                                </g>
                            </g>
                        </g>
                    </g>
                </g>
            </g>
        </g>
    </g>
</svg>