<?xml version="1.0" encoding="UTF-8"?>
<svg width="56px" height="56px" viewBox="0 0 56 56" version="1.1" xmlns="http://www.w3.org/2000/svg" xmlns:xlink="http://www.w3.org/1999/xlink">
    <title>报表中心</title>
    <defs>
        <linearGradient x1="5.6912963%" y1="6.66104054%" x2="57.9027191%" y2="94.4489796%" id="linearGradient-1">
            <stop stop-color="#00ACA3" offset="0%"></stop>
            <stop stop-color="#00D5CA" offset="100%"></stop>
        </linearGradient>
        <path d="M40.3515679,22.2254412 L22.6572074,4.39865694 C21.5058723,3.23778102 19.6546865,3.23778102 18.5023459,4.39865694 L0.807985434,22.2254412 C-0.908459036,23.9549513 0.291141581,26.9397676 2.70341474,26.9397676 L3.80447314,26.9397676 L3.80447314,38.8513194 C3.80447314,40.7676371 5.33992171,42.336 7.21725143,42.336 L32.5687441,42.336 C34.4450683,42.336 35.9815224,40.7676371 35.9815224,38.8513194 L35.9815224,26.9397676 L38.4561386,26.9397676 C40.8684117,26.9397676 42.0690179,23.9549513 40.3515679,22.2254412" id="path-2"></path>
        <linearGradient x1="5.6912963%" y1="9.03531995%" x2="57.9027191%" y2="92.0138889%" id="linearGradient-4">
            <stop stop-color="#26E9DE" stop-opacity="0.0616531906" offset="0%"></stop>
            <stop stop-color="#1DD8CE" offset="100%"></stop>
        </linearGradient>
        <linearGradient x1="27.4642157%" y1="11.2658026%" x2="86.6472331%" y2="63.2232683%" id="linearGradient-5">
            <stop stop-color="#FFFFFF" stop-opacity="0" offset="0%"></stop>
            <stop stop-color="#24F0E4" offset="100%"></stop>
        </linearGradient>
    </defs>
    <g id="页面-1" stroke="none" stroke-width="1" fill="none" fill-rule="evenodd">
        <g id="Group-12" transform="translate(4.000000, 7.000000)">
            <mask id="mask-3" fill="white">
                <use xlink:href="#path-2"></use>
            </mask>
            <use id="Mask" fill="url(#linearGradient-1)" opacity="0.900000036" xlink:href="#path-2"></use>
            <path d="M48.5604698,18.6974412 L30.3605562,0.870656942 C29.1763258,-0.290218981 27.272249,-0.290218981 26.0869844,0.870656942 L7.88707073,18.6974412 C6.12158499,20.4269513 7.35545991,23.4117676 9.83665516,23.4117676 L10.9691724,23.4117676 L10.9691724,35.3233194 C10.9691724,37.2396371 12.5484909,38.808 14.4794586,38.808 L40.5552796,38.808 C42.4852131,38.808 44.0655659,37.2396371 44.0655659,35.3233194 L44.0655659,23.4117676 L46.6108854,23.4117676 C49.0920806,23.4117676 50.3269898,20.4269513 48.5604698,18.6974412" id="Fill-1" fill="url(#linearGradient-4)" opacity="0.680268787" mask="url(#mask-3)"></path>
            <path d="M47.4075679,18.6974412 L29.7132074,0.870656942 C28.5618723,-0.290218981 26.7106865,-0.290218981 25.5583459,0.870656942 L7.86398543,18.6974412 C6.14754096,20.4269513 7.34714158,23.4117676 9.75941474,23.4117676 L10.8604731,23.4117676 L10.8604731,35.3233194 C10.8604731,37.2396371 12.3959217,38.808 14.2732514,38.808 L39.6247441,38.808 C41.5010683,38.808 43.0375224,37.2396371 43.0375224,35.3233194 L43.0375224,23.4117676 L45.5121386,23.4117676 C47.9244117,23.4117676 49.1250179,20.4269513 47.4075679,18.6974412" id="Fill-1" fill="url(#linearGradient-5)" style="mix-blend-mode: multiply;" opacity="0.2"></path>
            <g id="fenxi-3" transform="translate(12.600000, 19.600000)" fill="#FFFFFF" fill-rule="nonzero">
                <path d="M7.1865948,1.4160069 C3.2126556,1.4160069 0.0045276,4.6344837 0.0045276,8.5980741 C0.0045276,12.5616645 3.2230044,15.7801413 7.1865948,15.7801413 C11.1501852,15.7801413 14.368662,12.5616645 14.368662,8.5980741 L7.1865948,8.5980741 L7.1865948,1.4160069 Z" id="路径"></path>
                <path d="M8.6664732,0.0085701 L8.6664732,7.1906373 L15.8485404,7.1906373 C15.8485404,3.2166981 12.6300636,0.0085701 8.6664732,0.0085701 Z" id="路径"></path>
            </g>
        </g>
    </g>
</svg>