<?xml version="1.0" encoding="UTF-8"?>
<svg width="56px" height="56px" viewBox="0 0 56 56" version="1.1" xmlns="http://www.w3.org/2000/svg" xmlns:xlink="http://www.w3.org/1999/xlink">
    <title>报送信息</title>
    <defs>
        <linearGradient x1="0%" y1="2.01928784%" x2="100%" y2="97.9807122%" id="linearGradient-1">
            <stop stop-color="#F9AA22" offset="0%"></stop>
            <stop stop-color="#F9A022" offset="100%"></stop>
        </linearGradient>
        <path d="M33.6420816,39.2682379 C34.3681166,39.2682379 34.9566879,39.8856388 34.9566879,40.6472828 C34.9566879,41.4088346 34.3681166,42.0262816 33.6420816,42.0262816 L5.65895067,42.0262816 C4.9329157,42.0262816 4.34434439,41.4088807 4.34434439,40.6472828 C4.34434439,39.8856388 4.9329157,39.2682379 5.65895067,39.2682379 L33.6420816,39.2682379 Z M32.9360861,3.626 C36.39553,3.626 39.2,6.57055941 39.2,10.2028665 L39.2,27.4935959 C39.2,31.1258569 36.39553,34.0704163 32.9360861,34.0704163 L6.2639139,34.0704163 C2.80446996,34.0704163 0,31.1258569 0,27.493642 L0,10.2029126 C0,6.57055941 2.80446996,3.626 6.2639139,3.626 L32.9360861,3.626 Z" id="path-2"></path>
        <linearGradient x1="105.651244%" y1="96.252629%" x2="18.1644696%" y2="3.74737101%" id="linearGradient-4">
            <stop stop-color="#FFE6C2" offset="0%"></stop>
            <stop stop-color="#FFFFFF" offset="100%"></stop>
        </linearGradient>
        <linearGradient x1="80.7678862%" y1="86.0050141%" x2="17.882055%" y2="3.74737101%" id="linearGradient-5">
            <stop stop-color="#FFE6C2" offset="0%"></stop>
            <stop stop-color="#FFFFFF" stop-opacity="0" offset="100%"></stop>
        </linearGradient>
    </defs>
    <g id="页面-1" stroke="none" stroke-width="1" fill="none" fill-rule="evenodd">
        <g id="工作台" transform="translate(-372.000000, -295.000000)">
            <g id="不同状态下的项目数量" transform="translate(16.000000, 96.000000)">
                <g id="编组-12备份-17" transform="translate(356.000000, 199.000000)">
                    <g id="形状-2" transform="translate(5.056000, 5.880000)">
                        <g id="形状" transform="translate(0.000000, 0.268593)">
                            <mask id="mask-3" fill="white">
                                <use xlink:href="#path-2"></use>
                            </mask>
                            <use id="蒙版" fill="url(#linearGradient-1)" xlink:href="#path-2"></use>
                            <path d="M38.0136402,36.582312 C38.7531138,36.582312 39.3525793,37.1997129 39.3525793,37.9613569 C39.3525793,38.7229087 38.7531138,39.3403557 38.0136402,39.3403557 L9.51255222,39.3403557 C8.77307862,39.3403557 8.17361309,38.7229548 8.17361309,37.9613569 C8.17361309,37.1997129 8.77307862,36.582312 9.51255222,36.582312 L38.0136402,36.582312 Z M37.2945769,0.940074074 C40.8180539,0.940074074 43.6744335,3.88463349 43.6744335,7.51694056 L43.6744335,24.80767 C43.6744335,28.439931 40.8180539,31.3844904 37.2945769,31.3844904 L10.1287131,31.3844904 C6.60523616,31.3844904 3.74885655,28.439931 3.74885655,24.8077161 L3.74885655,7.51698666 C3.74885655,3.88463349 6.60523616,0.940074074 10.1287131,0.940074074 L37.2945769,0.940074074 Z" fill="url(#linearGradient-4)" fill-rule="nonzero" style="mix-blend-mode: multiply;" opacity="0.8" mask="url(#mask-3)"></path>
                            <path d="M40.4259478,36.582312 C41.1654215,36.582312 41.764887,37.1997129 41.764887,37.9613569 C41.764887,38.7229087 41.1654215,39.3403557 40.4259478,39.3403557 L11.9248599,39.3403557 C11.1853863,39.3403557 10.5859208,38.7229548 10.5859208,37.9613569 C10.5859208,37.1997129 11.1853863,36.582312 11.9248599,36.582312 L40.4259478,36.582312 Z M39.7068846,0.940074074 C43.2303615,0.940074074 46.0867412,3.88463349 46.0867412,7.51694056 L46.0867412,24.80767 C46.0867412,28.439931 43.2303615,31.3844904 39.7068846,31.3844904 L12.5410208,31.3844904 C9.01754386,31.3844904 6.16116424,28.439931 6.16116424,24.8077161 L6.16116424,7.51698666 C6.16116424,3.88463349 9.01754386,0.940074074 12.5410208,0.940074074 L39.7068846,0.940074074 Z" fill="url(#linearGradient-5)" fill-rule="nonzero" style="mix-blend-mode: multiply;" opacity="0.800000012"></path>
                        </g>
                        <path d="M11.0543149,17.7171891 C12.0285452,17.7171891 12.8183149,18.5069588 12.8183149,19.4811891 L12.8183149,25.6225225 C12.8183149,26.5967528 12.0285452,27.3865225 11.0543149,27.3865225 L10.9638534,27.3865225 C9.98962309,27.3865225 9.19985339,26.5967528 9.19985339,25.6225225 L9.19985339,19.4811891 C9.19985339,18.5069588 9.98962309,17.7171891 10.9638534,17.7171891 L11.0543149,17.7171891 Z M19.4973918,15.2998558 C20.4716221,15.2998558 21.2613918,16.0896255 21.2613918,17.0638558 L21.2613918,25.6225225 C21.2613918,26.5967528 20.4716221,27.3865225 19.4973918,27.3865225 L19.4069303,27.3865225 C18.4327,27.3865225 17.6429303,26.5967528 17.6429303,25.6225225 L17.6429303,17.0638558 C17.6429303,16.0896255 18.4327,15.2998558 19.4069303,15.2998558 L19.4973918,15.2998558 Z M27.9404688,10.4651891 C28.9146991,10.4651891 29.7044688,11.2549588 29.7044688,12.2291891 L29.7044688,25.6225225 C29.7044688,26.5967528 28.9146991,27.3865225 27.9404688,27.3865225 L27.8500072,27.3865225 C26.8757769,27.3865225 26.0860072,26.5967528 26.0860072,25.6225225 L26.0860072,12.2291891 C26.0860072,11.2549588 26.8757769,10.4651891 27.8500072,10.4651891 L27.9404688,10.4651891 Z" id="形状结合" fill="#FFFFFF"></path>
                    </g>
                </g>
            </g>
        </g>
    </g>
</svg>