<?xml version="1.0" encoding="UTF-8"?>
<svg width="56px" height="56px" viewBox="0 0 56 56" version="1.1" xmlns="http://www.w3.org/2000/svg" xmlns:xlink="http://www.w3.org/1999/xlink">
    <title>政策法规</title>
    <defs>
        <linearGradient x1="16.5513473%" y1="10.1899956%" x2="100%" y2="93.6228488%" id="linearGradient-1">
            <stop stop-color="#FF804C" offset="0%"></stop>
            <stop stop-color="#FB6F58" offset="100%"></stop>
        </linearGradient>
        <path d="M33.6640861,4.851 C37.12353,4.851 39.928,8.39236545 39.928,12.7608719 L39.928,33.5561025 C39.928,37.9245535 37.12353,41.4659189 33.6640861,41.4659189 L6.9919139,41.4659189 C3.53246996,41.4659189 0.728,37.9245535 0.728,33.5561579 L0.728,12.7609273 C0.728,8.39236545 3.53246996,4.851 6.9919139,4.851 L33.6640861,4.851 Z" id="path-2"></path>
        <linearGradient x1="34.5003004%" y1="22.5659876%" x2="100%" y2="89.246179%" id="linearGradient-4">
            <stop stop-color="#FE4500" stop-opacity="0.2598066" offset="0%"></stop>
            <stop stop-color="#FF4C00" stop-opacity="0.240767045" offset="100%"></stop>
        </linearGradient>
        <linearGradient x1="34.5003004%" y1="22.5659876%" x2="100%" y2="89.246179%" id="linearGradient-5">
            <stop stop-color="#FF6619" stop-opacity="0.0472847465" offset="0%"></stop>
            <stop stop-color="#FA6F51" stop-opacity="0.261582168" offset="100%"></stop>
        </linearGradient>
    </defs>
    <g id="页面-1" stroke="none" stroke-width="1" fill="none" fill-rule="evenodd">
        <g id="工作台" transform="translate(-810.000000, -176.000000)">
            <g id="不同状态下的项目数量" transform="translate(16.000000, 96.000000)">
                <g id="编组-12备份-16" transform="translate(794.000000, 80.000000)">
                    <g id="编组-10" transform="translate(4.304000, 7.704000)">
                        <g id="路径" transform="translate(0.000000, 0.024492)">
                            <mask id="mask-3" fill="white">
                                <use xlink:href="#path-2"></use>
                            </mask>
                            <use id="蒙版" fill="url(#linearGradient-1)" opacity="0.900000036" xlink:href="#path-2"></use>
                            <path d="M43.0120451,0.274135135 C46.6592874,0.274135135 49.616,3.81550058 49.616,8.18400703 L49.616,28.9792376 C49.616,33.3476886 46.6592874,36.8890541 43.0120451,36.8890541 L14.8919549,36.8890541 C11.2447126,36.8890541 8.288,33.3476886 8.288,28.979293 L8.288,8.18406247 C8.288,3.81550058 11.2447126,0.274135135 14.8919549,0.274135135 L43.0120451,0.274135135 Z" fill="url(#linearGradient-4)" opacity="0.900000036" mask="url(#mask-3)"></path>
                            <path d="M41.0120451,0.00490779014 C44.6592874,0.00490779014 47.616,3.54627324 47.616,7.91477969 L47.616,28.7100103 C47.616,33.0784613 44.6592874,36.6198267 41.0120451,36.6198267 L12.8919549,36.6198267 C9.24471261,36.6198267 6.288,33.0784613 6.288,28.7100657 L6.288,7.91483513 C6.288,3.54627324 9.24471261,0.00490779014 12.8919549,0.00490779014 L41.0120451,0.00490779014 Z" fill="url(#linearGradient-5)"></path>
                        </g>
                        <g id="规范" transform="translate(11.200000, 12.600000)" fill-rule="nonzero">
                            <rect id="矩形" fill="#000000" opacity="0" x="0" y="0" width="20.16" height="20.16"></rect>
                            <path d="M1.63603125,16.4607188 L8.7255,16.4607188 C9.1153125,16.4607188 9.43228125,16.1417813 9.43228125,15.7539375 L9.43228125,15.5885625 C9.43228125,15.19875 9.11334375,14.8817813 8.7255,14.8817813 L1.63603125,14.8817813 C1.24621875,14.8817813 0.929240934,15.2007188 0.929240934,15.5885625 L0.929240934,15.7539375 C0.92728125,16.1417813 1.24621875,16.4607188 1.63603125,16.4607188 Z M9.65278125,17.0828438 L0.70678125,17.0828438 C0.3189375,17.0828438 0,17.4017813 0,17.7915938 L0,18.0475313 C0,18.4373438 0.3189375,18.7543125 0.70678125,18.7543125 L9.65278125,18.7543125 C10.0425938,18.7543125 10.3595716,18.435375 10.3595716,18.0475313 L10.3595716,17.7915938 C10.3615313,17.4017813 10.0425938,17.0828438 9.65278125,17.0828438 Z M11.9916562,6.804 C12.3420937,7.1544375 12.3420937,7.725375 11.9916562,8.0758125 L10.0366875,10.0307813 C9.68625,10.3812188 9.11334375,10.3812188 8.76290625,10.0307813 L6.055875,7.32375 C5.7054375,6.9733125 5.7054375,6.40040625 6.055875,6.0519375 L8.01084375,4.09696875 C8.36128125,3.74653125 8.9341875,3.74653125 9.284625,4.09696875 L11.9916562,6.804 Z" id="形状" fill="#FFFFFF"></path>
                            <path d="M8.75503125,11.111625 C8.94009375,11.2966875 8.94009375,11.5979063 8.75503125,11.7829688 L7.8474375,12.6905625 C7.662375,12.875625 7.36115625,12.875625 7.17609375,12.6905625 L3.394125,8.90859375 C3.2090625,8.72353125 3.2090625,8.4223125 3.394125,8.23725 L4.3036875,7.32965625 C4.48875,7.14459375 4.78996875,7.14459375 4.97503125,7.32965625 L8.75503125,11.111625 Z M14.6514375,5.2171875 C14.8365,5.40225 14.8365,5.70346875 14.6514375,5.88853125 L13.7438438,6.796125 C13.5587813,6.9811875 13.2575625,6.9811875 13.0725,6.796125 L9.2885625,3.01415625 C9.1035,2.82909375 9.1035,2.527875 9.2885625,2.3428125 L10.198125,1.43521875 C10.3831875,1.25015625 10.6844063,1.25015625 10.8694688,1.43521875 L14.6514375,5.2171875 Z" id="形状" fill="#FFFFFF"></path>
                            <path d="M19.7760937,15.9271875 C19.4571562,15.60825 19.0141875,15.4881562 18.60075,15.5669062 C18.3270937,14.7321562 17.5277812,13.5587812 16.3996875,12.4287188 C15.206625,11.237625 13.962375,10.4087813 13.1217187,10.1843438 C13.2890625,9.8083125 13.285125,9.43621875 13.0665937,9.21965625 C12.7378125,8.890875 12.056625,9.03853125 11.54475,9.55040625 C11.032875,10.0622813 10.8852187,10.7434688 11.214,11.07225 C11.4325313,11.2888125 11.804625,11.2947188 12.1806563,11.127375 C12.4050938,11.9660625 13.2339375,13.2122813 14.427,14.4053438 C15.5550937,15.5334375 16.7304375,16.33275 17.5632188,16.6064062 C17.4844687,17.017875 17.6045625,17.4628125 17.9235,17.78175 C18.4334062,18.293625 19.2642187,18.293625 19.7760938,17.78175 C20.2879687,17.2679062 20.2879687,16.4390625 19.7760938,15.9271875 L19.7760937,15.9271875 Z" id="路径" fill="#FFFFFF"></path>
                        </g>
                    </g>
                </g>
            </g>
        </g>
    </g>
</svg>