<?xml version="1.0" encoding="UTF-8"?>
<svg width="56px" height="56px" viewBox="0 0 56 56" version="1.1" xmlns="http://www.w3.org/2000/svg" xmlns:xlink="http://www.w3.org/1999/xlink">
    <title>数据中心</title>
    <defs>
        <linearGradient x1="16.5513473%" y1="4.37023768%" x2="100%" y2="100%" id="linearGradient-1">
            <stop stop-color="#FF804C" offset="0%"></stop>
            <stop stop-color="#FB6F58" offset="100%"></stop>
        </linearGradient>
        <path d="M21.9255986,39.7013579 C31.9662933,38.6871166 39.8030769,30.2105354 39.8030769,19.9015385 C39.8030769,8.90999248 30.8930844,0 19.9015385,0 C8.90999248,0 0,8.90999248 0,19.9015385 C0,25.0302386 1.95624752,29.690147 5.14196786,33.2193532 L3.55426735,37.9839289 C3.25648137,38.878761 3.92281436,39.8030769 4.8662947,39.8030769 L21.9255986,39.7013579 Z" id="path-2"></path>
        <linearGradient x1="105.651244%" y1="100%" x2="18.1644696%" y2="0%" id="linearGradient-4">
            <stop stop-color="#FFE6C2" offset="0%"></stop>
            <stop stop-color="#FFFFFF" offset="100%"></stop>
        </linearGradient>
        <linearGradient x1="34.5003004%" y1="15.048811%" x2="100%" y2="100%" id="linearGradient-5">
            <stop stop-color="#FF6619" stop-opacity="0.0472847465" offset="0%"></stop>
            <stop stop-color="#FA6F51" stop-opacity="0.261582168" offset="100%"></stop>
        </linearGradient>
    </defs>
    <g id="页面-1" stroke="none" stroke-width="1" fill="none" fill-rule="evenodd">
        <g id="数据中心" transform="translate(3.880000, 5.352000)">
            <g id="Oval" transform="translate(0.000000, 3.618462)">
                <mask id="mask-3" fill="white">
                    <use xlink:href="#path-2"></use>
                </mask>
                <use id="Mask" fill="url(#linearGradient-1)" opacity="0.900000036" xlink:href="#path-2"></use>
                <circle fill="url(#linearGradient-4)" fill-rule="nonzero" style="mix-blend-mode: multiply;" opacity="0.8" mask="url(#mask-3)" cx="27.1384615" cy="16.2830769" r="19.9015385"></circle>
            </g>
            <circle id="Oval" fill="url(#linearGradient-5)" cx="27.1384615" cy="19.9015385" r="19.9015385"></circle>
            <path d="M27.1952917,17.574375 C27.5461126,17.925196 27.5461126,18.4939892 27.1952917,18.8448102 L17.0318102,29.0082917 C16.6809892,29.3591126 16.112196,29.3591126 15.761375,29.0082917 C15.410554,28.6574707 15.410554,28.0886775 15.761375,27.7378565 L25.9248565,17.574375 C26.2756775,17.223554 26.8444707,17.223554 27.1952917,17.574375 Z M30.0125,25.9863333 C30.7567037,25.9863333 31.36,26.5896296 31.36,27.3338333 C31.36,28.078037 30.7567037,28.6813333 30.0125,28.6813333 L22.8258333,28.6813333 C22.0816296,28.6813333 21.4783333,28.078037 21.4783333,27.3338333 C21.4783333,26.5896296 22.0816296,25.9863333 22.8258333,25.9863333 L30.0125,25.9863333 Z M14.7408333,14.308 C15.485037,14.308 16.0883333,14.9112963 16.0883333,15.6555 L16.088,17.901 L18.3341667,17.9013333 C19.0783704,17.9013333 19.6816667,18.5046296 19.6816667,19.2488333 C19.6816667,19.993037 19.0783704,20.5963333 18.3341667,20.5963333 L16.088,20.596 L16.0883333,22.8421667 C16.0883333,23.5863704 15.485037,24.1896667 14.7408333,24.1896667 C13.9966296,24.1896667 13.3933333,23.5863704 13.3933333,22.8421667 L13.393,20.596 L11.1475,20.5963333 C10.4032963,20.5963333 9.8,19.993037 9.8,19.2488333 C9.8,18.5046296 10.4032963,17.9013333 11.1475,17.9013333 L13.393,17.901 L13.3933333,15.6555 C13.3933333,14.9112963 13.9966296,14.308 14.7408333,14.308 Z" id="形状结合" fill="#FFFFFF"></path>
        </g>
    </g>
</svg>