<?xml version="1.0" encoding="UTF-8"?>
<svg width="14px" height="14px" viewBox="0 0 14 14" version="1.1" xmlns="http://www.w3.org/2000/svg" xmlns:xlink="http://www.w3.org/1999/xlink">
    <title>日历时间</title>
    <g id="页面-1" stroke="none" stroke-width="1" fill="none" fill-rule="evenodd">
        <g id="工作台弹窗3" transform="translate(-903.000000, -706.000000)">
            <g id="编组-6" transform="translate(671.000000, 434.000000)">
                <g id="编组-8" transform="translate(20.000000, 266.000000)">
                    <g id="日历时间" transform="translate(212.000000, 6.000000)">
                        <rect id="矩形" x="0" y="0" width="14" height="14"></rect>
                        <path d="M6.99951608,13.125 C3.62270877,13.125 0.875,10.3772912 0.875,7.00048392 C0.875,3.62270878 3.62270877,0.875 6.99951608,0.875 C10.3772912,0.875 13.125,3.62270877 13.125,7.00048392 C13.125,10.3772912 10.3772912,13.125 6.99951608,13.125 Z M6.97452595,1.92309196 C4.18903176,1.92309196 1.92309196,4.18997985 1.92309196,6.97547405 C1.92309196,9.76096824 4.18903176,12.026908 6.97452595,12.026908 C9.76002014,12.026908 12.026908,9.76002015 12.026908,6.97547405 C12.026908,4.18997986 9.76002015,1.92309196 6.97452595,1.92309196 Z M9.83888416,7.93614978 L6.42954545,7.93614978 L6.42954545,3.63086417 C6.42954545,3.36919078 6.64191805,3.15681818 6.90359144,3.15681818 C7.16526483,3.15681818 7.37763743,3.36919078 7.37763743,3.63086417 L7.37763743,6.98805782 L9.83888417,6.98805782 C10.1005576,6.98805782 10.3129302,7.20043042 10.3129302,7.4621038 C10.3129302,7.72282908 10.1015056,7.93614978 9.83888416,7.93614978 Z" id="形状" fill="#848C9A"></path>
                    </g>
                </g>
            </g>
        </g>
    </g>
</svg>