<?xml version="1.0" encoding="UTF-8"?>
<svg width="20px" height="20px" viewBox="0 0 20 20" version="1.1" xmlns="http://www.w3.org/2000/svg" xmlns:xlink="http://www.w3.org/1999/xlink">
    <title>日历左划</title>
    <g id="页面-1" stroke="none" stroke-width="1" fill="none" fill-rule="evenodd">
        <g id="工作台" transform="translate(-64.000000, -496.000000)">
            <g id="不同状态下的项目数量备份" transform="translate(16.000000, 440.000000)">
                <g id="编组-8" transform="translate(0.000000, 56.000000)">
                    <g id="日历左划" transform="translate(48.000000, 0.000000)">
                        <circle id="椭圆形" fill="#EBEFF8" opacity="0.506928943" cx="10" cy="10" r="10"></circle>
                        <path d="M11.5451981,5.33333333 C11.6523038,5.33333333 11.7593287,5.37471844 11.8402808,5.45717891 C12.0002323,5.6201336 11.9977813,5.88188464 11.8348266,6.04183613 L7.66754966,10.1319452 L11.8789051,14.3433142 C12.040365,14.5047605 12.040365,14.7665385 11.8789051,14.9279983 C11.7174588,15.0894581 11.4556673,15.0894581 11.294221,14.9279983 L6.78776936,10.4215467 C6.70975311,10.3435439 6.66615936,10.237583 6.66666667,10.1272586 C6.66719635,10.0169342 6.71175974,9.91140421 6.79050323,9.8341152 L11.2556101,5.4516977 C11.3360774,5.37271181 11.4406782,5.33333333 11.5451847,5.33333333 L11.5451981,5.33333333 Z" id="路径备份" fill="#AEB6C8" fill-rule="nonzero"></path>
                    </g>
                </g>
            </g>
        </g>
    </g>
</svg>