<?xml version="1.0" encoding="UTF-8"?>
<svg width="16px" height="16px" viewBox="0 0 16 16" version="1.1" xmlns="http://www.w3.org/2000/svg" xmlns:xlink="http://www.w3.org/1999/xlink">
    <title>日历左划双</title>
    <g id="页面-1" stroke="none" stroke-width="1" fill="none" fill-rule="evenodd">
        <g id="工作台弹窗3" transform="translate(-687.000000, -450.000000)">
            <g id="编组-6" transform="translate(671.000000, 434.000000)">
                <g id="日历左划双" transform="translate(16.000000, 16.000000)">
                    <rect id="矩形备份-4" transform="translate(8.000000, 8.000000) scale(-1, 1) translate(-8.000000, -8.000000) " x="0" y="0" width="16" height="16"></rect>
                    <path d="M3.10003361,3.50182575 L3.1355042,3.52037588 L7.87079832,7.70080433 C8.04306723,7.85277673 8.04306723,8.14722327 7.87079832,8.29919567 L7.87079832,8.29919567 L3.1355042,12.4796241 C3.08088235,12.5283028 3,12.4843733 3,12.4048252 L3,12.4048252 L3,11.4870543 C3,11.4288774 3.02310924,11.373075 3.06407563,11.3374565 L3.06407563,11.3374565 L6.84558824,8 L3.06407563,4.6625435 C3.02415966,4.62692496 3,4.5711226 3,4.51294566 L3,4.51294566 L3,3.5951748 C3,3.51562675 3.07983193,3.47169722 3.1355042,3.52037588 Z M7.60003361,3.50182575 L7.6355042,3.52037588 L12.3707983,7.70080433 C12.5430672,7.85277673 12.5430672,8.14722327 12.3707983,8.29919567 L12.3707983,8.29919567 L7.6355042,12.4796241 C7.58088235,12.5283028 7.5,12.4843733 7.5,12.4048252 L7.5,12.4048252 L7.5,11.4870543 C7.5,11.4288774 7.52310924,11.373075 7.56407563,11.3374565 L7.56407563,11.3374565 L11.3455882,8 L7.56407563,4.6625435 C7.52415966,4.62692496 7.5,4.5711226 7.5,4.51294566 L7.5,4.51294566 L7.5,3.5951748 C7.5,3.51562675 7.57983193,3.47169722 7.6355042,3.52037588 Z" id="形状结合" fill="#2D2F33" transform="translate(7.750000, 8.000000) scale(-1, 1) translate(-7.750000, -8.000000) "></path>
                </g>
            </g>
        </g>
    </g>
</svg>