<?xml version="1.0" encoding="UTF-8"?>
<svg width="20px" height="20px" viewBox="0 0 20 20" version="1.1" xmlns="http://www.w3.org/2000/svg" xmlns:xlink="http://www.w3.org/1999/xlink">
    <title>日历右划</title>
    <g id="页面-1" stroke="none" stroke-width="1" fill="none" fill-rule="evenodd">
        <g id="工作台" transform="translate(-860.000000, -496.000000)">
            <g id="不同状态下的项目数量备份" transform="translate(16.000000, 440.000000)">
                <g id="编组-8" transform="translate(0.000000, 56.000000)">
                    <g id="日历右划" transform="translate(844.000000, 0.000000)">
                        <circle id="椭圆形备份-20" fill="#EBEFF8" opacity="0.506928943" cx="10" cy="10" r="10"></circle>
                        <path d="M12.8785315,5.33333333 C12.9856372,5.33333333 13.092662,5.37471844 13.1736142,5.45717891 C13.3335656,5.6201336 13.3311146,5.88188464 13.1681599,6.04183613 L9.00088299,10.1319452 L13.2122385,14.3433142 C13.3736983,14.5047605 13.3736983,14.7665385 13.2122385,14.9279983 C13.0507921,15.0894581 12.7890007,15.0894581 12.6275543,14.9279983 L8.12110269,10.4215467 C8.04308645,10.3435439 7.9994927,10.237583 8,10.1272586 C8.00052968,10.0169342 8.04509308,9.91140421 8.12383656,9.8341152 L12.5889435,5.4516977 C12.6694108,5.37271181 12.7740115,5.33333333 12.878518,5.33333333 L12.8785315,5.33333333 Z" id="路径" fill="#AEB6C8" fill-rule="nonzero" transform="translate(10.666667, 10.191213) rotate(180.000000) translate(-10.666667, -10.191213) "></path>
                    </g>
                </g>
            </g>
        </g>
    </g>
</svg>