<?xml version="1.0" encoding="UTF-8"?>
<svg width="12px" height="12px" viewBox="0 0 12 12" version="1.1" xmlns="http://www.w3.org/2000/svg" xmlns:xlink="http://www.w3.org/1999/xlink">
    <title>日历icon</title>
    <g id="页面-1" stroke="none" stroke-width="1" fill="none" fill-rule="evenodd">
        <g id="工作台弹窗2" transform="translate(-1027.000000, -411.000000)">
            <g id="弹窗" transform="translate(582.000000, 220.000000)">
                <g id="编组-8" transform="translate(51.000000, 74.000000)">
                    <g id="编组-14" transform="translate(0.000000, 110.000000)">
                        <g id="日历icon" transform="translate(394.000000, 7.000000)">
                            <rect id="矩形" fill="#000000" fill-rule="nonzero" opacity="0" x="0" y="0" width="12" height="12"></rect>
                            <path d="M11.06,1.49 L8.75,1.49 L8.75,0.61 C8.75,0.5495 8.7005,0.5 8.64,0.5 L7.87,0.5 C7.8095,0.5 7.76,0.5495 7.76,0.61 L7.76,1.49 L4.24,1.49 L4.24,0.61 C4.24,0.5495 4.1905,0.5 4.13,0.5 L3.36,0.5 C3.2995,0.5 3.25,0.5495 3.25,0.61 L3.25,1.49 L0.94,1.49 C0.696625,1.49 0.5,1.686625 0.5,1.93 L0.5,11.06 C0.5,11.303375 0.696625,11.5 0.94,11.5 L11.06,11.5 C11.303375,11.5 11.5,11.303375 11.5,11.06 L11.5,1.93 C11.5,1.686625 11.303375,1.49 11.06,1.49 Z M10.51,10.51 L1.49,10.51 L1.49,5.285 L10.51,5.285 L10.51,10.51 Z M1.49,4.35 L1.49,2.48 L3.25,2.48 L3.25,3.14 C3.25,3.2005 3.2995,3.25 3.36,3.25 L4.13,3.25 C4.1905,3.25 4.24,3.2005 4.24,3.14 L4.24,2.48 L7.76,2.48 L7.76,3.14 C7.76,3.2005 7.8095,3.25 7.87,3.25 L8.64,3.25 C8.7005,3.25 8.75,3.2005 8.75,3.14 L8.75,2.48 L10.51,2.48 L10.51,4.35 L1.49,4.35 Z" id="形状" fill="#848C9A"></path>
                        </g>
                    </g>
                </g>
            </g>
        </g>
    </g>
</svg>