<?xml version="1.0" encoding="UTF-8"?>
<svg width="56px" height="56px" viewBox="0 0 56 56" version="1.1" xmlns="http://www.w3.org/2000/svg" xmlns:xlink="http://www.w3.org/1999/xlink">
    <title>智慧党建</title>
    <defs>
        <linearGradient x1="16.5513473%" y1="10.1899956%" x2="100%" y2="93.6228488%" id="linearGradient-1">
            <stop stop-color="#FF804C" offset="0%"></stop>
            <stop stop-color="#FB6F58" offset="100%"></stop>
        </linearGradient>
        <path d="M33.8771171,4.9896 C37.4354023,4.9896 40.32,8.63214732 40.32,13.1254682 L40.32,34.5148483 C40.32,39.0081121 37.4354023,42.6506595 33.8771171,42.6506595 L6.44288287,42.6506595 C2.88459767,42.6506595 0,39.0081121 0,34.5149053 L0,13.1255253 C0,8.63214732 2.88459767,4.9896 6.44288287,4.9896 L33.8771171,4.9896 Z" id="path-2"></path>
        <linearGradient x1="34.5003004%" y1="22.5659876%" x2="100%" y2="89.246179%" id="linearGradient-4">
            <stop stop-color="#FE4500" stop-opacity="0.2598066" offset="0%"></stop>
            <stop stop-color="#FF4C00" stop-opacity="0.240767045" offset="100%"></stop>
        </linearGradient>
        <linearGradient x1="34.5003004%" y1="22.5659876%" x2="100%" y2="89.246179%" id="linearGradient-5">
            <stop stop-color="#FF6619" stop-opacity="0.0472847465" offset="0%"></stop>
            <stop stop-color="#FA6F51" stop-opacity="0.261582168" offset="100%"></stop>
        </linearGradient>
    </defs>
    <g id="页面-1" stroke="none" stroke-width="1" fill="none" fill-rule="evenodd">
        <g id="工作台" transform="translate(-372.000000, -176.000000)">
            <g id="不同状态下的项目数量" transform="translate(16.000000, 96.000000)">
                <g id="编组-21" transform="translate(356.000000, 79.000000)">
                    <rect id="矩形" opacity="0.535063244" x="0" y="0" width="55.6416" height="55.6416"></rect>
                    <g id="编组-10" transform="translate(3.838400, 6.838400)">
                        <g id="路径" transform="translate(0.000000, 0.025192)">
                            <mask id="mask-3" fill="white">
                                <use xlink:href="#path-2"></use>
                            </mask>
                            <use id="蒙版" fill="url(#linearGradient-1)" opacity="0.900000036" xlink:href="#path-2"></use>
                            <path d="M42.8009606,0.281967568 C46.5524099,0.281967568 49.5936,3.92451489 49.5936,8.4178358 L49.5936,29.8072158 C49.5936,34.3004797 46.5524099,37.943027 42.8009606,37.943027 L13.8774394,37.943027 C10.1259901,37.943027 7.0848,34.3004797 7.0848,29.8072728 L7.0848,8.41789283 C7.0848,3.92451489 10.1259901,0.281967568 13.8774394,0.281967568 L42.8009606,0.281967568 Z" fill="url(#linearGradient-4)" opacity="0.900000036" mask="url(#mask-3)"></path>
                            <path d="M42.8009606,0.00504801272 C46.5524099,0.00504801272 49.5936,3.64759533 49.5936,8.14091625 L49.5936,29.5302963 C49.5936,34.0235602 46.5524099,37.6661075 42.8009606,37.6661075 L13.8774394,37.6661075 C10.1259901,37.6661075 7.0848,34.0235602 7.0848,29.5303533 L7.0848,8.14097327 C7.0848,3.64759533 10.1259901,0.00504801272 13.8774394,0.00504801272 L42.8009606,0.00504801272 Z" fill="url(#linearGradient-5)"></path>
                        </g>
                        <g id="党建" transform="translate(8.640000, 12.960000)" fill-rule="nonzero">
                            <rect id="矩形" fill="#000000" opacity="0" x="0" y="0" width="20.736" height="20.736"></rect>
                            <path d="M10.373832,1.946592 C14.721264,3.57696 17.359272,8.787528 15.099696,13.009896 L9.584568,7.469496 L11.68992,5.357016 L10.373184,4.04676 C9.646776,4.758264 8.49204,4.909896 7.713144,4.596264 L3.521232,8.79012 L5.895504,11.15532 L7.47792,9.578736 L12.991104,15.110064 C10.292832,16.59204 6.553224,16.124832 3.793392,13.25808 L2.45592,14.590368 C2.856384,15.145056 3.192048,15.647904 3.60936,16.069752 C3.572424,16.113816 3.458376,16.207776 3.455784,16.210368 C3.3858,16.198704 3.302856,16.171488 3.228984,16.171488 C2.51748,16.171488 1.943352,16.790328 1.943352,17.501832 C1.944,18.212688 2.52396,18.792 3.234816,18.792 C3.94632,18.792 4.554792,18.207504 4.554792,17.496 C4.554792,17.413056 4.536,17.33724 4.522392,17.25948 L4.72716,17.057304 C7.900416,19.197648 11.378232,19.463976 15.119784,17.225136 L16.665264,18.7758 L18.780336,16.68924 L17.225136,15.11784 C21.68856,8.392248 15.737328,1.785888 10.37448,1.946592 L10.373832,1.946592 Z" id="路径" fill="#FFFFFF"></path>
                        </g>
                    </g>
                </g>
            </g>
        </g>
    </g>
</svg>