<?xml version="1.0" encoding="UTF-8"?>
<svg width="57px" height="56px" viewBox="0 0 57 56" version="1.1" xmlns="http://www.w3.org/2000/svg" xmlns:xlink="http://www.w3.org/1999/xlink">
    <title>添加更多</title>
    <defs>
        <rect id="path-1" x="10" y="11" width="36" height="36" rx="6"></rect>
        <mask id="mask-2" maskContentUnits="userSpaceOnUse" maskUnits="objectBoundingBox" x="0" y="0" width="36" height="36" fill="white">
            <use xlink:href="#path-1"></use>
        </mask>
    </defs>
    <g id="页面-1" stroke="none" stroke-width="1" fill="none" fill-rule="evenodd">
        <g id="工作台" transform="translate(-517.000000, -295.000000)" fill-rule="nonzero">
            <g id="不同状态下的项目数量" transform="translate(16.000000, 96.000000)">
                <g id="添加更多" transform="translate(502.000000, 199.000000)">
                    <use id="Rectangle" stroke-opacity="0.15" stroke="#000000" mask="url(#mask-2)" stroke-width="1.80952381" stroke-dasharray="1.80952380952381,1.80952380952381" xlink:href="#path-1"></use>
                    <path d="M28,22 C28.2899495,22 28.525,22.2350505 28.525,22.525 L28.525,28.475 L34.475,28.475 C34.7649495,28.475 35,28.7100505 35,29 C35,29.2899495 34.7649495,29.525 34.475,29.525 L28.525,29.525 L28.525,35.475 C28.525,35.7649495 28.2899495,36 28,36 C27.7100505,36 27.475,35.7649495 27.475,35.475 L27.474,29.525 L21.525,29.525 C21.2350505,29.525 21,29.2899495 21,29 C21,28.7100505 21.2350505,28.475 21.525,28.475 L27.474,28.475 L27.475,22.525 C27.475,22.2350505 27.7100505,22 28,22 Z" id="Combined-Shape" fill-opacity="0.2" fill="#000000"></path>
                </g>
            </g>
        </g>
    </g>
</svg>