<?xml version="1.0" encoding="UTF-8"?>
<svg width="56px" height="56px" viewBox="0 0 56 56" version="1.1" xmlns="http://www.w3.org/2000/svg" xmlns:xlink="http://www.w3.org/1999/xlink">
    <title>用户中心</title>
    <defs>
        <linearGradient x1="5.6912963%" y1="3.21750559%" x2="57.9027191%" y2="97.9807122%" id="linearGradient-1">
            <stop stop-color="#63C4FF" offset="0%"></stop>
            <stop stop-color="#4D97FF" offset="100%"></stop>
        </linearGradient>
        <path d="M33.6420816,39.2682379 C34.3681166,39.2682379 34.9566879,39.8856388 34.9566879,40.6472828 C34.9566879,41.4088346 34.3681166,42.0262816 33.6420816,42.0262816 L5.65895067,42.0262816 C4.9329157,42.0262816 4.34434439,41.4088807 4.34434439,40.6472828 C4.34434439,39.8856388 4.9329157,39.2682379 5.65895067,39.2682379 L33.6420816,39.2682379 Z M32.9360861,3.626 C36.39553,3.626 39.2,6.57055941 39.2,10.2028665 L39.2,27.4935959 C39.2,31.1258569 36.39553,34.0704163 32.9360861,34.0704163 L6.2639139,34.0704163 C2.80446996,34.0704163 0,31.1258569 0,27.493642 L0,10.2029126 C0,6.57055941 2.80446996,3.626 6.2639139,3.626 L32.9360861,3.626 Z" id="path-2"></path>
        <linearGradient x1="17.1669804%" y1="-8.32299505%" x2="50%" y2="88.8274263%" id="linearGradient-4">
            <stop stop-color="#FFFFFF" stop-opacity="0.508905157" offset="0%"></stop>
            <stop stop-color="#5DD4FF" stop-opacity="0.013166521" offset="100%"></stop>
        </linearGradient>
        <linearGradient x1="17.1669804%" y1="-8.32299505%" x2="50%" y2="88.8274263%" id="linearGradient-5">
            <stop stop-color="#FFFFFF" stop-opacity="0" offset="0%"></stop>
            <stop stop-color="#C1DAFF" offset="100%"></stop>
        </linearGradient>
    </defs>
    <g id="页面-1" stroke="none" stroke-width="1" fill="none" fill-rule="evenodd">
        <g id="用户中心" transform="translate(4.000000, 5.000000)">
            <g id="形状-2" transform="translate(0.056000, 0.880000)">
                <g id="形状" transform="translate(0.000000, 0.268593)">
                    <mask id="mask-3" fill="white">
                        <use xlink:href="#path-2"></use>
                    </mask>
                    <use id="蒙版" fill="url(#linearGradient-1)" xlink:href="#path-2"></use>
                    <path d="M38.2392992,36.582312 C38.9602859,36.582312 39.5447648,37.1997129 39.5447648,37.9613569 C39.5447648,38.7229087 38.9602859,39.3403557 38.2392992,39.3403557 L10.4507384,39.3403557 C9.72975165,39.3403557 9.14527276,38.7229548 9.14527276,37.9613569 C9.14527276,37.1997129 9.72975165,36.582312 10.4507384,36.582312 L38.2392992,36.582312 Z M37.5382125,0.940074074 C40.9736025,0.940074074 43.7585726,3.88463349 43.7585726,7.51694056 L43.7585726,24.80767 C43.7585726,28.439931 40.9736025,31.3844904 37.5382125,31.3844904 L11.0514953,31.3844904 C7.61610526,31.3844904 4.83113514,28.439931 4.83113514,24.8077161 L4.83113514,7.51698666 C4.83113514,3.88463349 7.61610526,0.940074074 11.0514953,0.940074074 L37.5382125,0.940074074 Z" fill-opacity="0.6" fill="url(#linearGradient-4)" style="mix-blend-mode: multiply;" opacity="0.4" mask="url(#mask-3)"></path>
                    <path d="M40.5912992,36.582312 C41.3122859,36.582312 41.8967648,37.1997129 41.8967648,37.9613569 C41.8967648,38.7229087 41.3122859,39.3403557 40.5912992,39.3403557 L12.8027384,39.3403557 C12.0817517,39.3403557 11.4972728,38.7229548 11.4972728,37.9613569 C11.4972728,37.1997129 12.0817517,36.582312 12.8027384,36.582312 L40.5912992,36.582312 Z M39.8902125,0.940074074 C43.3256025,0.940074074 46.1105726,3.88463349 46.1105726,7.51694056 L46.1105726,24.80767 C46.1105726,28.439931 43.3256025,31.3844904 39.8902125,31.3844904 L13.4034953,31.3844904 C9.96810526,31.3844904 7.18313514,28.439931 7.18313514,24.8077161 L7.18313514,7.51698666 C7.18313514,3.88463349 9.96810526,0.940074074 13.4034953,0.940074074 L39.8902125,0.940074074 Z" fill="url(#linearGradient-5)" style="mix-blend-mode: multiply;" opacity="0.8"></path>
                    <g id="用户" transform="translate(11.200000, 9.800000)" fill-rule="nonzero">
                        <rect id="矩形" fill="#000000" opacity="0" x="0" y="0" width="17.248" height="17.248"></rect>
                        <path d="M8.43941632,1.05999883 C10.555915,1.05999883 12.2715832,2.74765803 12.2715832,4.82921869 C12.2715832,6.91119304 10.5559322,8.5989384 8.43941632,8.5989384 C6.32298658,8.5989384 4.60735285,6.91121027 4.60735285,4.82921869 C4.60735285,2.7471754 6.32355538,1.05999883 8.43941632,1.05999883 L8.43941632,1.05999883 L8.43941632,1.05999883 Z M8.43941632,1.05999883 C10.555915,1.05999883 12.2715832,2.74765803 12.2715832,4.82921869 C12.2715832,6.91119304 10.5559322,8.5989384 8.43941632,8.5989384 C6.32298658,8.5989384 4.60735285,6.91121027 4.60735285,4.82921869 C4.60735285,2.7471754 6.32355538,1.05999883 8.43941632,1.05999883 L8.43941632,1.05999883 L8.43941632,1.05999883 Z M7.00245931,9.85570698 L10.1965379,9.85570698 C12.9305275,9.85570698 15.1465831,12.0350837 15.1465831,14.7245175 L15.1465831,15.0381839 C15.1465831,16.0980276 12.9300621,16.1383089 10.1965379,16.1383089 L7.00245931,16.1383089 C4.26838351,16.1383089 2.05241407,16.1367576 2.05241407,15.0381839 L2.05241407,14.7245175 C2.05241407,12.0350837 4.26840074,9.85570698 7.00245931,9.85570698 L7.00245931,9.85570698 L7.00245931,9.85570698 Z" id="形状" fill="#FFFFFF"></path>
                    </g>
                </g>
            </g>
        </g>
    </g>
</svg>