<?xml version="1.0" encoding="UTF-8"?>
<svg width="61px" height="60px" viewBox="0 0 61 60" version="1.1" xmlns="http://www.w3.org/2000/svg" xmlns:xlink="http://www.w3.org/1999/xlink">
    <title>财务系统</title>
    <g id="页面-1" stroke="none" stroke-width="1" fill="none" fill-rule="evenodd">
        <g id="工作台" transform="translate(-968.000000, -888.000000)" fill-rule="nonzero">
            <g id="不同项目类型项目数量占比" transform="translate(944.000000, 96.000000)">
                <g id="财务系统" transform="translate(24.000000, 792.000000)">
                    <rect id="矩形" fill="#F5F8FC" x="0" y="0" width="61" height="60" rx="9"></rect>
                    <g id="财务" transform="translate(13.000000, 12.000000)">
                        <path d="M22.6049805,22.7426758 L19.300293,22.7426758 L19.300293,21.0288086 L22.6049805,21.0288086 C23.1762695,21.0288086 23.6289062,20.5805664 23.6289062,20.0048828 C23.6289062,19.4335937 23.1806641,18.980957 22.6049805,18.980957 L20.9482422,18.980957 L22.5654297,17.0825195 C22.9345703,16.6518555 22.8686523,16.0014648 22.4423828,15.6499023 C22.0117188,15.2807617 21.3613281,15.3466797 21.0097656,15.7729492 L18.315918,18.9501953 C18.3027344,18.9501953 18.2895508,18.9414062 18.2719727,18.9414062 C18.2675781,18.9414062 18.2631836,18.9458008 18.2543945,18.9458008 L15.5341797,15.7773437 C15.1650391,15.3466797 14.5102539,15.3071289 14.0839844,15.6762695 C13.6533203,16.0454102 13.6137695,16.7001953 13.9829102,17.1264648 L15.5825195,18.980957 L13.9213867,18.980957 C13.3500977,18.980957 12.8974609,19.4291992 12.8974609,20.0048828 C12.8974609,20.5805664 13.3457031,21.0288086 13.9213867,21.0288086 L17.2524414,21.0288086 L17.2524414,22.7426758 L13.9213867,22.7426758 C13.3500977,22.7426758 12.8974609,23.190918 12.8974609,23.7666016 C12.8974609,24.3422852 13.3457031,24.7905273 13.9213867,24.7905273 L17.2524414,24.7905273 L17.2524414,28.6489258 C17.2524414,29.2202148 17.7006836,29.6728516 18.2763672,29.6728516 C18.8520508,29.668457 19.300293,29.2202148 19.300293,28.6445312 L19.300293,24.7905273 L22.6049805,24.7905273 C23.1762695,24.7861328 23.6289062,24.3378906 23.6289062,23.7666016 C23.6245117,23.190918 23.1762695,22.7426758 22.6049805,22.7426758 L22.6049805,22.7426758 Z" id="路径" fill="#FF9100"></path>
                        <path d="M33.2836914,35.5175781 L3.24267578,35.5175781 C1.93310547,35.5175781 0.865234375,34.449707 0.865234375,33.1401367 L0.865234375,11.940918 C0.865234375,10.6313477 1.93310547,9.56347656 3.24267578,9.56347656 L33.2880859,9.56347656 C34.5976562,9.56347656 35.6655273,10.6313477 35.6655273,11.940918 L35.6655273,33.1401367 C35.6611328,34.449707 34.5932617,35.5175781 33.2836914,35.5175781 Z M3.71728516,32.6655273 L32.809082,32.6655273 L32.809082,12.4155273 L3.71728516,12.4155273 L3.71728516,32.6655273 Z M27.9311523,7.78369141 L8.59521484,7.78369141 C7.80859375,7.78369141 7.16699219,7.14648437 7.16699219,6.35546875 C7.16699219,5.56884766 7.80419922,4.92724609 8.59521484,4.92724609 L27.9311523,4.92724609 C28.7177734,4.92724609 29.359375,5.56445312 29.359375,6.35546875 C29.3549805,7.14208984 28.7177734,7.78369141 27.9311523,7.78369141 Z M22.4995117,3.66162109 L14.0224609,3.66162109 C13.2358398,3.66162109 12.5942383,3.02441406 12.5942383,2.23339844 C12.5942383,1.44677734 13.2314453,0.805175781 14.0224609,0.805175781 L22.4995117,0.805175781 C23.2861328,0.805175781 23.9277344,1.44238281 23.9277344,2.23339844 C23.9277344,3.02441406 23.2905273,3.66162109 22.4995117,3.66162109 Z" id="形状" fill="#6699FF"></path>
                    </g>
                </g>
            </g>
        </g>
    </g>
</svg>