<?xml version="1.0" encoding="UTF-8"?>
<svg width="10px" height="10px" viewBox="0 0 10 10" version="1.1" xmlns="http://www.w3.org/2000/svg" xmlns:xlink="http://www.w3.org/1999/xlink">
    <title>选中对号</title>
    <g id="页面-1" stroke="none" stroke-width="1" fill="none" fill-rule="evenodd">
        <g id="工作台弹窗1" transform="translate(-364.000000, -369.000000)" fill="#FFFFFF" fill-rule="nonzero">
            <g id="编组-23" transform="translate(320.000000, 150.000000)">
                <g id="编组-6" transform="translate(42.000000, 146.000000)">
                    <g id="人员备份" transform="translate(0.000000, 52.000000)">
                        <g id="编组-20" transform="translate(0.000000, 19.000000)">
                            <g id="编组-24" transform="translate(2.000000, 2.000000)">
                                <path d="M8.69091637,1.88606664 L9.35337685,2.50409492 C9.43414329,2.57944424 9.43853474,2.70600107 9.36318542,2.78676751 C9.36306661,2.78689486 9.36294763,2.78702206 9.36282848,2.78714911 L4.61639859,7.84824248 C4.54083852,7.92881179 4.41427065,7.93287258 4.33370134,7.85731251 C4.33178221,7.85551269 4.32989878,7.85367518 4.32805215,7.85180105 L1.14074016,4.61701892 C1.06321475,4.53833888 1.06415075,4.41170934 1.14283079,4.33418393 C1.14295511,4.33406143 1.1430796,4.33393909 1.14320424,4.33381692 L1.79012518,3.69971888 C1.86886935,3.62253554 1.99522663,3.62364336 2.0726054,3.70219549 L4.45014624,6.11578882 L4.45014624,6.11578882 L8.40861018,1.89548353 C8.48403256,1.81507216 8.61030304,1.81086016 8.69091637,1.88606664 Z" id="路径-13"></path>
                            </g>
                        </g>
                    </g>
                </g>
            </g>
        </g>
    </g>
</svg>