<?xml version="1.0" encoding="UTF-8"?>
<svg width="56px" height="56px" viewBox="0 0 56 56" version="1.1" xmlns="http://www.w3.org/2000/svg" xmlns:xlink="http://www.w3.org/1999/xlink">
    <title>门户首页</title>
    <defs>
        <linearGradient x1="5.6912963%" y1="6.66104054%" x2="57.9027191%" y2="94.4489796%" id="linearGradient-1">
            <stop stop-color="#63C4FF" offset="0%"></stop>
            <stop stop-color="#4D97FF" offset="100%"></stop>
        </linearGradient>
        <path d="M40.3515679,22.2254412 L22.6572074,4.39865694 C21.5058723,3.23778102 19.6546865,3.23778102 18.5023459,4.39865694 L0.807985434,22.2254412 C-0.908459036,23.9549513 0.291141581,26.9397676 2.70341474,26.9397676 L3.80447314,26.9397676 L3.80447314,38.8513194 C3.80447314,40.7676371 5.33992171,42.336 7.21725143,42.336 L32.5687441,42.336 C34.4450683,42.336 35.9815224,40.7676371 35.9815224,38.8513194 L35.9815224,26.9397676 L38.4561386,26.9397676 C40.8684117,26.9397676 42.0690179,23.9549513 40.3515679,22.2254412" id="path-2"></path>
        <linearGradient x1="17.1669804%" y1="-3.28125208%" x2="50%" y2="85.4709816%" id="linearGradient-4">
            <stop stop-color="#FFFFFF" stop-opacity="0" offset="0%"></stop>
            <stop stop-color="#C1DAFF" offset="100%"></stop>
        </linearGradient>
    </defs>
    <g id="页面-1" stroke="none" stroke-width="1" fill="none" fill-rule="evenodd">
        <g id="不同状态下的项目数量备份-3" transform="translate(-618.000000, -199.000000)">
            <g id="编组-12备份-17" transform="translate(356.000000, 199.000000)">
                <g id="Group-9" transform="translate(262.000000, 0.000000)">
                    <g id="Group-12" transform="translate(4.000000, 7.000000)">
                        <mask id="mask-3" fill="white">
                            <use xlink:href="#path-2"></use>
                        </mask>
                        <use id="Mask" fill="url(#linearGradient-1)" xlink:href="#path-2"></use>
                        <path d="M47.4075679,18.6974412 L29.7132074,0.870656942 C28.5618723,-0.290218981 26.7106865,-0.290218981 25.5583459,0.870656942 L7.86398543,18.6974412 C6.14754096,20.4269513 7.34714158,23.4117676 9.75941474,23.4117676 L10.8604731,23.4117676 L10.8604731,35.3233194 C10.8604731,37.2396371 12.3959217,38.808 14.2732514,38.808 L39.6247441,38.808 C41.5010683,38.808 43.0375224,37.2396371 43.0375224,35.3233194 L43.0375224,23.4117676 L45.5121386,23.4117676 C47.9244117,23.4117676 49.1250179,20.4269513 47.4075679,18.6974412" id="Fill-1" fill="url(#linearGradient-4)" style="mix-blend-mode: multiply;" opacity="0.8"></path>
                        <path d="M22.7325298,23.4396193 C24.8875326,23.4396193 26.634753,25.1868397 26.634753,27.3414523 C26.634753,30.9028163 19.5785579,35.6328961 19.5785579,35.6328961 C19.5785579,35.6328961 12.522753,31.0733434 12.522753,27.3414523 C12.522753,24.6588689 14.2699734,23.4396193 16.424586,23.4396193 C17.7224654,23.4396193 18.8689386,24.0760719 19.5785579,25.0506521 C20.2883723,24.0760719 21.4348455,23.4396193 22.7325298,23.4396193 Z" id="路径" fill="#FFFFFF" fill-rule="nonzero"></path>
                    </g>
                </g>
            </g>
        </g>
    </g>
</svg>