<?xml version="1.0" encoding="UTF-8"?>
<svg width="56px" height="56px" viewBox="0 0 56 56" version="1.1" xmlns="http://www.w3.org/2000/svg" xmlns:xlink="http://www.w3.org/1999/xlink">
    <title>协同办公</title>
    <defs>
        <linearGradient x1="5.6912963%" y1="7.46654045%" x2="57.9027191%" y2="93.6228488%" id="linearGradient-1">
            <stop stop-color="#00ACA3" offset="0%"></stop>
            <stop stop-color="#00D5CA" offset="100%"></stop>
        </linearGradient>
        <path d="M32.9360861,4.851 C36.39553,4.851 39.2,8.39236545 39.2,12.7608719 L39.2,33.5561025 C39.2,37.9245535 36.39553,41.4659189 32.9360861,41.4659189 L6.2639139,41.4659189 C2.80446996,41.4659189 0,37.9245535 0,33.5561579 L0,12.7609273 C0,8.39236545 2.80446996,4.851 6.2639139,4.851 L32.9360861,4.851 Z" id="path-2"></path>
        <linearGradient x1="5.6912963%" y1="11.7339121%" x2="57.9027191%" y2="89.246179%" id="linearGradient-4">
            <stop stop-color="#26E9DE" stop-opacity="0.0616531906" offset="0%"></stop>
            <stop stop-color="#1DD8CE" offset="100%"></stop>
        </linearGradient>
        <linearGradient x1="27.4642157%" y1="15.7996819%" x2="86.6472331%" y2="61.6754706%" id="linearGradient-5">
            <stop stop-color="#FFFFFF" stop-opacity="0" offset="0%"></stop>
            <stop stop-color="#24F0E4" offset="100%"></stop>
        </linearGradient>
    </defs>
    <g id="页面-1" stroke="none" stroke-width="1" fill="none" fill-rule="evenodd">
        <g id="工作台" transform="translate(-666.000000, -176.000000)">
            <g id="不同状态下的项目数量" transform="translate(16.000000, 96.000000)">
                <g id="编组-12备份-15" transform="translate(648.000000, 80.000000)">
                    <g id="编组-15" transform="translate(2.000000, 0.000000)">
                        <g id="编组-10" transform="translate(3.880000, 6.056000)">
                            <g id="路径" transform="translate(0.000000, 0.024492)">
                                <mask id="mask-3" fill="white">
                                    <use xlink:href="#path-2"></use>
                                </mask>
                                <use id="蒙版" fill="url(#linearGradient-1)" opacity="0.900000036" xlink:href="#path-2"></use>
                                <path d="M41.6120451,0.274135135 C45.2592874,0.274135135 48.216,3.81550058 48.216,8.18400703 L48.216,28.9792376 C48.216,33.3476886 45.2592874,36.8890541 41.6120451,36.8890541 L13.4919549,36.8890541 C9.84471261,36.8890541 6.888,33.3476886 6.888,28.979293 L6.888,8.18406247 C6.888,3.81550058 9.84471261,0.274135135 13.4919549,0.274135135 L41.6120451,0.274135135 Z" fill="url(#linearGradient-4)" opacity="0.680268787" mask="url(#mask-3)"></path>
                                <path d="M40.6120451,0.00490779014 C44.2592874,0.00490779014 47.216,3.54627324 47.216,7.91477969 L47.216,28.7100103 C47.216,33.0784613 44.2592874,36.6198267 40.6120451,36.6198267 L12.4919549,36.6198267 C8.84471261,36.6198267 5.888,33.0784613 5.888,28.7100657 L5.888,7.91483513 C5.888,3.54627324 8.84471261,0.00490779014 12.4919549,0.00490779014 L40.6120451,0.00490779014 Z" fill="url(#linearGradient-5)" style="mix-blend-mode: multiply;" opacity="0.2"></path>
                            </g>
                            <g id="人物" transform="translate(9.643200, 13.288800)"></g>
                        </g>
                        <g id="image-图像" transform="translate(13.680000, 18.992000)" fill="#FFFFFF" fill-rule="nonzero">
                            <rect id="矩形" opacity="0" x="1.96" y="0" width="18.816" height="18.816"></rect>
                            <path d="M0.970190391,17.5148698 C0.445063149,16.9790855 0.445063149,16.1105792 0.970190391,15.5747949 L6.3508414,10.0866059 C6.82340765,9.60251806 7.57356287,9.54794828 8.10870008,9.95873106 L12.5568843,13.3614083 L17.1126815,8.7145586 C17.6404949,8.19459082 18.4794809,8.20202709 18.9983556,8.73127209 C19.5172303,9.2605171 19.5245209,10.1162711 19.0147416,10.6546334 L13.6340906,16.1428225 C13.1606125,16.6259797 12.4107866,16.6802582 11.8751558,16.2701485 L7.42750966,12.8674713 L2.87171246,17.5143209 C2.34663677,18.0497294 1.49556306,18.049975 0.970190391,17.5148698 L0.970190391,17.5148698 Z M8.64676518,4.19613255 C8.64676518,5.71165411 9.85126494,6.94022708 11.3370907,6.94022708 C12.8229164,6.94022708 14.0274162,5.71165411 14.0274162,4.19613255 C14.0274162,2.68061099 12.8229164,1.45203803 11.3370907,1.45203803 C9.85126494,1.45203803 8.64676518,2.68061099 8.64676518,4.19613255 L8.64676518,4.19613255 Z" id="形状"></path>
                        </g>
                    </g>
                </g>
            </g>
        </g>
    </g>
</svg>