<?xml version="1.0" encoding="UTF-8"?>
<svg width="56px" height="56px" viewBox="0 0 56 56" version="1.1" xmlns="http://www.w3.org/2000/svg" xmlns:xlink="http://www.w3.org/1999/xlink">
    <title>国企信息</title>
    <defs>
        <linearGradient x1="10.3167162%" y1="0%" x2="56.9738412%" y2="100%" id="linearGradient-1">
            <stop stop-color="#00D5FF" offset="0%"></stop>
            <stop stop-color="#2AB3FF" offset="100%"></stop>
        </linearGradient>
        <path d="M35.9008272,38.0831681 L21.6673632,46.0586804 C20.3330736,46.8071065 18.7284888,46.8071065 17.3941992,46.0586804 L3.1607352,38.0831681 C1.2139848,36.9928683 0,34.8769475 0,32.5762301 L0,11.2938242 C0,7.84120813 2.6920152,5.04 6.0105528,5.04 L33.0510096,5.04 C36.3695472,5.04 39.06,7.84120813 39.06,11.2938242 L39.06,32.5762301 C39.06,34.8769475 37.8475776,36.9928683 35.9008272,38.0831681" id="path-2"></path>
        <linearGradient x1="10.3167162%" y1="0%" x2="56.9738412%" y2="100%" id="linearGradient-4">
            <stop stop-color="#FFFFFF" stop-opacity="0" offset="0.0681203562%"></stop>
            <stop stop-color="#C2EAFF" offset="100%"></stop>
        </linearGradient>
    </defs>
    <g id="页面-1" stroke="none" stroke-width="1" fill="none" fill-rule="evenodd">
        <g id="工作台" transform="translate(-228.000000, -295.000000)">
            <g id="不同状态下的项目数量" transform="translate(16.000000, 96.000000)">
                <g id="编组-12备份-15" transform="translate(210.000000, 199.000000)">
                    <g id="国企信息" transform="translate(2.000000, 0.000000)">
                        <g id="Fill-1" transform="translate(5.000000, 5.000000)">
                            <mask id="mask-3" fill="white">
                                <use xlink:href="#path-2"></use>
                            </mask>
                            <use id="Mask" fill="url(#linearGradient-1)" xlink:href="#path-2"></use>
                            <text id="59A1FF" mask="url(#mask-3)" font-family="PingFangSC-Regular, PingFang SC" font-size="17.64" font-weight="normal" line-spacing="25.2" fill="#000000" fill-opacity="0.85">
                                <tspan x="41.72616" y="16.48">59A1FF</tspan>
                            </text>
                            <text id="59A1FF" mask="url(#mask-3)" font-family="PingFangSC-Regular, PingFang SC" font-size="17.64" font-weight="normal" line-spacing="25.2" fill="#000000" fill-opacity="0.85">
                                <tspan x="41.72616" y="16.48">59A1FF</tspan>
                            </text>
                            <path d="M43.4608272,33.0431681 L29.2273632,41.0186804 C27.8930736,41.7671065 26.2884888,41.7671065 24.9541992,41.0186804 L10.7207352,33.0431681 C8.7739848,31.9528683 7.56,29.8369475 7.56,27.5362301 L7.56,6.25382419 C7.56,2.80120813 10.2520152,0 13.5705528,0 L40.6110096,0 C43.9295472,0 46.62,2.80120813 46.62,6.25382419 L46.62,27.5362301 C46.62,29.8369475 45.4075776,31.9528683 43.4608272,33.0431681" fill-opacity="0.8" fill="url(#linearGradient-4)" style="mix-blend-mode: multiply;" mask="url(#mask-3)"></path>
                            <path d="M43.4608272,33.0431681 L29.2273632,41.0186804 C27.8930736,41.7671065 26.2884888,41.7671065 24.9541992,41.0186804 L10.7207352,33.0431681 C8.7739848,31.9528683 7.56,29.8369475 7.56,27.5362301 L7.56,6.25382419 C7.56,2.80120813 10.2520152,0 13.5705528,0 L40.6110096,0 C43.9295472,0 46.62,2.80120813 46.62,6.25382419 L46.62,27.5362301 C46.62,29.8369475 45.4075776,31.9528683 43.4608272,33.0431681" fill-opacity="0.8" fill="url(#linearGradient-4)" style="mix-blend-mode: multiply;"></path>
                            <g id="企业" transform="translate(8.400000, 14.000000)" fill="#FFFFFF" fill-rule="nonzero">
                                <path d="M0.958437774,18.1999908 C0.443752025,18.2021812 0.0199951172,17.8141039 0.000683659727,17.3228685 C-0.0186277978,16.8316331 0.373466733,16.4142985 0.886876057,16.3796296 L0.958437774,16.3773513 L1.912594,16.3768957 L1.912594,4.2149406 C1.91261852,3.52481177 2.32075213,2.89388627 2.96693664,2.58505363 L3.05615024,2.54495575 L8.78108757,0.152753728 C9.35284467,-0.0861017073 10.0107566,-0.0428564499 10.5428633,0.268557141 C11.07497,0.579970731 11.4140332,1.1202017 11.4508167,1.71520339 L11.4541562,1.82273858 L11.4541562,4.31609657 L17.7482477,6.1943169 C18.5101913,6.42162544 19.0434955,7.07786612 19.0850206,7.83924057 L19.087406,7.93401735 L19.087406,16.3773513 L20.0415622,16.3773513 C20.556248,16.3751516 20.9800049,16.7632289 20.9993163,17.2544643 C21.0186278,17.7456997 20.6265333,18.1630343 20.1131239,18.1977032 L20.0415622,18.1999908 L0.958437774,18.1999908 Z M9.54584377,1.82273858 L3.82090644,4.2149406 L3.82090644,16.3768957 L9.54584377,16.3768957 L9.54584377,4.99320365 L9.54584377,1.82273858 Z M11.4541562,6.22530162 L11.4541562,16.3768957 L17.1790936,16.3768957 L17.1790936,7.93401735 L11.4541562,6.22530162 Z M7.16045323,11.3651092 C7.67513885,11.3629189 8.09889555,11.7509962 8.11820701,12.2422315 C8.13751846,12.7334667 7.74542413,13.1508013 7.23201495,13.1854704 L7.16045323,13.187758 L6.206297,13.187758 C5.69161125,13.1899484 5.26785434,12.8018711 5.24854289,12.3106357 C5.22923143,11.8194003 5.62132596,11.4020657 6.13473529,11.3673968 L6.206297,11.3651092 L7.16045323,11.3651092 Z M14.793703,11.3651092 C15.3083886,11.3629189 15.7321453,11.7509962 15.7514568,12.2422315 C15.7707682,12.7334667 15.3786739,13.1508013 14.8652647,13.1854704 L14.793703,13.187758 L13.8395468,13.187758 C13.324861,13.1899484 12.9011041,12.8018711 12.8817927,12.3106357 C12.8624812,11.8194003 13.2545757,11.4020657 13.7679851,11.3673968 L13.8395468,11.3651092 L14.793703,11.3651092 Z M7.16045323,7.719849 C7.67513898,7.71765853 8.09889589,8.10573587 8.11820735,8.59697125 C8.1375188,9.08820664 7.74542427,9.5055413 7.23201495,9.54021014 L7.16045323,9.54249772 L6.206297,9.54249772 C5.69161138,9.54468801 5.26785468,9.15661072 5.24854323,8.66537547 C5.22923177,8.17414021 5.6213261,7.75680561 6.13473529,7.7221366 L6.206297,7.719849 L7.16045323,7.719849 Z" id="形状"></path>
                            </g>
                        </g>
                    </g>
                </g>
            </g>
        </g>
    </g>
</svg>