<?xml version="1.0" encoding="UTF-8"?>
<svg width="56px" height="56px" viewBox="0 0 56 56" version="1.1" xmlns="http://www.w3.org/2000/svg" xmlns:xlink="http://www.w3.org/1999/xlink">
    <title>国资监管</title>
    <defs>
        <linearGradient x1="5.6912963%" y1="3.21750559%" x2="57.9027191%" y2="97.9807122%" id="linearGradient-1">
            <stop stop-color="#63C4FF" offset="0%"></stop>
            <stop stop-color="#4D97FF" offset="100%"></stop>
        </linearGradient>
        <path d="M34.6032839,40.3901875 C35.3500628,40.3901875 35.9554504,41.0252285 35.9554504,41.8086338 C35.9554504,42.5919442 35.3500628,43.2270326 34.6032839,43.2270326 L5.82063498,43.2270326 C5.07385614,43.2270326 4.46846852,42.5919916 4.46846852,41.8086338 C4.46846852,41.0252285 5.07385614,40.3901875 5.82063498,40.3901875 L34.6032839,40.3901875 Z M33.8771171,3.7296 C37.4354023,3.7296 40.32,6.75828968 40.32,10.494377 L40.32,28.2791273 C40.32,32.0151671 37.4354023,35.0438568 33.8771171,35.0438568 L6.44288287,35.0438568 C2.88459767,35.0438568 0,32.0151671 0,28.2791747 L0,10.4944244 C0,6.75828968 2.88459767,3.7296 6.44288287,3.7296 L33.8771171,3.7296 Z M29.8007742,10.9488108 L29.7831455,10.9685358 L22.5314217,19.2249691 L17.555111,15.2485781 L17.5373467,15.2346379 C16.9559161,14.7844714 16.1939494,14.8975583 15.7181553,15.5046713 L15.7038264,15.5232109 L8.49142816,24.9930642 L8.47533632,25.0145435 C7.95461166,25.7209454 7.98774457,26.8046355 8.5503261,27.4617722 L8.56750278,27.4815447 L8.58513148,27.5011748 C9.16479928,28.135789 10.0540542,28.0953433 10.5932212,27.4098044 L10.6094938,27.3887992 L16.9913543,19.0093691 L21.8960653,22.9285765 L21.91279,22.9418055 C22.4623082,23.3678847 23.1782594,23.2930624 23.6601557,22.7590647 L23.6747107,22.7427536 L31.7558874,13.5419382 L31.7731996,13.5218812 C32.3395781,12.8557829 32.3646199,11.7566827 31.8253173,11.0531732 C31.2859695,10.3496637 30.3844649,10.3055195 29.800729,10.9488582 L29.8007742,10.9488108 Z" id="path-2"></path>
        <linearGradient x1="17.1669804%" y1="-8.32299505%" x2="50%" y2="88.8274263%" id="linearGradient-4">
            <stop stop-color="#FFFFFF" stop-opacity="0.508905157" offset="0%"></stop>
            <stop stop-color="#5DD4FF" stop-opacity="0.013166521" offset="100%"></stop>
        </linearGradient>
        <linearGradient x1="17.1669804%" y1="-8.32299505%" x2="50%" y2="88.8274263%" id="linearGradient-5">
            <stop stop-color="#FFFFFF" stop-opacity="0" offset="0%"></stop>
            <stop stop-color="#C1DAFF" offset="100%"></stop>
        </linearGradient>
        <path d="M29.5935657,11.2250775 L29.5760595,11.2448025 L22.3747579,19.5012358 L17.4330482,15.5248448 L17.4154074,15.5109045 C16.8380195,15.0607381 16.0813509,15.173825 15.608865,15.780938 L15.5946357,15.7994776 L8.4323862,25.2693308 L8.41640625,25.2908102 C7.89930225,25.9972121 7.93220479,27.0809021 8.49087461,27.7380389 L8.50793186,27.7578113 L8.52543799,27.7774415 C9.10107529,28.4120557 9.98414708,28.37161 10.5195652,27.6860711 L10.5357247,27.6650658 L16.8732113,19.2856357 L21.7438192,23.2048432 L21.7604276,23.2180722 C22.3061249,23.6441513 23.017098,23.5693291 23.4956437,23.0353314 L23.5100975,23.0190203 L31.5350847,13.8182048 L31.5522766,13.7981479 C32.114717,13.1320495 32.1395847,12.0329493 31.6040319,11.3294398 C31.0684343,10.6259303 30.173198,10.5817862 29.5935208,11.2251249 L29.5935657,11.2250775 Z" id="path-6"></path>
    </defs>
    <g id="页面-1" stroke="none" stroke-width="1" fill="none" fill-rule="evenodd">
        <g id="工作台" transform="translate(-79.000000, -176.000000)">
            <g id="不同状态下的项目数量" transform="translate(16.000000, 96.000000)">
                <g id="编组-12" transform="translate(62.000000, 80.000000)">
                    <g id="编组-12备份-13" transform="translate(1.000000, 0.000000)">
                        <g id="编组-15" transform="translate(5.000000, 6.000000)">
                            <g id="形状-2" transform="translate(0.257600, 0.048000)">
                                <g id="形状" transform="translate(0.000000, 0.276267)">
                                    <mask id="mask-3" fill="white">
                                        <use xlink:href="#path-2"></use>
                                    </mask>
                                    <use id="蒙版" fill="url(#linearGradient-1)" xlink:href="#path-2"></use>
                                    <path d="M39.3318506,37.6275209 C40.0734369,37.6275209 40.6746152,38.2625618 40.6746152,39.0459671 C40.6746152,39.8292775 40.0734369,40.4643659 39.3318506,40.4643659 L10.7493309,40.4643659 C10.0077446,40.4643659 9.40656627,39.8293249 9.40656627,39.0459671 C9.40656627,38.2625618 10.0077446,37.6275209 10.7493309,37.6275209 L39.3318506,37.6275209 Z M38.6107329,0.966933333 C42.1442769,0.966933333 45.0088176,3.99562301 45.0088176,7.73171029 L45.0088176,25.5164606 C45.0088176,29.2525005 42.1442769,32.2811901 38.6107329,32.2811901 L11.3672523,32.2811901 C7.83370827,32.2811901 4.96916757,29.2525005 4.96916757,25.516508 L4.96916757,7.73175771 C4.96916757,3.99562301 7.83370827,0.966933333 11.3672523,0.966933333 L38.6107329,0.966933333 Z" fill-opacity="0.6" fill="url(#linearGradient-4)" style="mix-blend-mode: multiply;" opacity="0.4" mask="url(#mask-3)"></path>
                                    <path d="M41.7510506,37.6275209 C42.4926369,37.6275209 43.0938152,38.2625618 43.0938152,39.0459671 C43.0938152,39.8292775 42.4926369,40.4643659 41.7510506,40.4643659 L13.1685309,40.4643659 C12.4269446,40.4643659 11.8257663,39.8293249 11.8257663,39.0459671 C11.8257663,38.2625618 12.4269446,37.6275209 13.1685309,37.6275209 L41.7510506,37.6275209 Z M41.0299329,0.966933333 C44.5634769,0.966933333 47.4280176,3.99562301 47.4280176,7.73171029 L47.4280176,25.5164606 C47.4280176,29.2525005 44.5634769,32.2811901 41.0299329,32.2811901 L13.7864523,32.2811901 C10.2529083,32.2811901 7.38836757,29.2525005 7.38836757,25.516508 L7.38836757,7.73175771 C7.38836757,3.99562301 10.2529083,0.966933333 13.7864523,0.966933333 L41.0299329,0.966933333 Z" fill="url(#linearGradient-5)" style="mix-blend-mode: multiply;" opacity="0.8"></path>
                                </g>
                                <mask id="mask-7" fill="white">
                                    <use xlink:href="#path-6"></use>
                                </mask>
                                <use id="路径" fill="#FFFFFF" xlink:href="#path-6"></use>
                            </g>
                        </g>
                    </g>
                </g>
            </g>
        </g>
    </g>
</svg>