<?xml version="1.0" encoding="UTF-8"?>
<svg width="40px" height="40px" viewBox="0 0 40 40" version="1.1" xmlns="http://www.w3.org/2000/svg" xmlns:xlink="http://www.w3.org/1999/xlink">
    <title>应用中心</title>
    <defs>
        <linearGradient x1="0%" y1="6.52848795%" x2="100%" y2="93.4715121%" id="linearGradient-1">
            <stop stop-color="#F9AA22" offset="0%"></stop>
            <stop stop-color="#F9A022" offset="100%"></stop>
        </linearGradient>
        <path d="M23.3748148,25.5859459 L4.06518519,25.5859459 C1.82933333,25.5859459 0,23.8146112 0,21.6496466 L0,3.93629938 C0,1.77133472 1.82933333,0 4.06518519,0 L13.5858489,0 C14.2718489,0 14.9192296,0.308015426 15.33896,0.832527318 L16.728237,2.57040349 C16.920317,2.81150183 17.2170756,2.95222453 17.5311111,2.95222453 L23.3748148,2.95222453 C25.6106667,2.95222453 27.44,4.72355925 27.44,6.88852391 L27.44,21.6496466 C27.44,23.8146112 25.6106667,25.5859459 23.3748148,25.5859459" id="path-2"></path>
        <linearGradient x1="80.7678862%" y1="86.4515238%" x2="17.882055%" y2="3.17377732%" id="linearGradient-4">
            <stop stop-color="#FFE6C2" offset="0%"></stop>
            <stop stop-color="#FFFFFF" stop-opacity="0" offset="100%"></stop>
        </linearGradient>
    </defs>
    <g id="页面-1" stroke="none" stroke-width="1" fill="none" fill-rule="evenodd">
        <g id="工作台弹窗1" transform="translate(-656.000000, -561.000000)">
            <g id="编组-23" transform="translate(320.000000, 150.000000)">
                <g id="编组-6备份" transform="translate(316.000000, 146.000000)">
                    <g id="人员备份-4" transform="translate(0.000000, 260.000000)">
                        <g id="应用中心" transform="translate(20.000000, 5.000000)">
                            <g id="Fill-1" transform="translate(3.500000, 8.311459)">
                                <mask id="mask-3" fill="white">
                                    <use xlink:href="#path-2"></use>
                                </mask>
                                <use id="Mask" fill="url(#linearGradient-1)" xlink:href="#path-2"></use>
                            </g>
                            <path d="M31.1391391,30.4859459 L12.5340501,30.4859459 C10.3797766,30.4859459 8.61718919,28.7146112 8.61718919,26.5496466 L8.61718919,8.83629938 C8.61718919,6.67133472 10.3797766,4.9 12.5340501,4.9 L21.7073382,4.9 C22.3683085,4.9 22.9920685,5.20801543 23.3964844,5.73252732 L24.7350716,7.47040349 C24.9201433,7.71150183 25.2060742,7.85222453 25.5086517,7.85222453 L31.1391391,7.85222453 C33.2934126,7.85222453 35.056,9.62355925 35.056,11.7885239 L35.056,26.5496466 C35.056,28.7146112 33.2934126,30.4859459 31.1391391,30.4859459" id="Fill-1" fill="url(#linearGradient-4)" fill-rule="nonzero" style="mix-blend-mode: multiply;" opacity="0.800000012"></path>
                            <g id="fenxi-2" transform="translate(10.360000, 14.700000)" fill="#FFFFFF" fill-rule="nonzero" stroke="#FFFFFF" stroke-width="0.5">
                                <path d="M2.76432508,7.44530258 C3.30963801,6.8527512 3.32649551,5.94627511 2.80359108,5.33385835 C2.28068664,4.7214416 1.38276891,4.59603499 0.712081725,5.04175018 C0.0413945437,5.48746538 -0.190752334,6.36387333 0.171344697,7.08315706 C0.533441728,7.80244078 1.37569873,8.13797947 2.13320416,7.86472343 L3.62068824,10.0485645 C3.16012777,10.5357018 3.05415123,11.2591896 3.35564885,11.8579532 C3.65714646,12.4567169 4.30148445,12.8023961 4.96708998,12.722471 C5.6326955,12.6425459 6.17687888,12.1541506 6.32805191,11.5010308 C6.47922494,10.847911 6.20497979,10.1700798 5.6421853,9.80582568 L7.85066087,3.1795036 C8.02872396,3.19161108 8.20756269,3.1741306 8.37991108,3.12777237 L10.0337061,6.02232088 C9.45981893,6.58187171 9.39151604,7.48085938 9.87427695,8.12069176 C10.3570379,8.76052415 11.2402488,8.94158364 11.9358226,8.54331154 C12.6313964,8.14503944 12.922325,7.29169036 12.6148933,6.5514679 C12.3074615,5.81124544 11.4975832,5.41508734 10.7245169,5.62677598 L9.07073432,2.73220262 C9.55537604,2.26032563 9.68884894,1.53368523 9.40353893,0.920379694 C9.11822892,0.307074157 8.47646029,-0.0589235261 7.80333734,0.00779212368 C7.13021439,0.0745077735 6.57277688,0.559363114 6.41340902,1.21674228 C6.25404117,1.87412145 6.52755594,2.56042382 7.09539745,2.9279854 L4.88688456,9.55433235 C4.65315143,9.53861803 4.41879671,9.57392124 4.20006551,9.6577948 L2.76432508,7.44530258 Z" id="路径"></path>
                            </g>
                        </g>
                    </g>
                </g>
            </g>
        </g>
    </g>
</svg>