<?xml version="1.0" encoding="UTF-8"?>
<svg width="40px" height="40px" viewBox="0 0 40 40" version="1.1" xmlns="http://www.w3.org/2000/svg" xmlns:xlink="http://www.w3.org/1999/xlink">
    <title>报表中心</title>
    <defs>
        <linearGradient x1="5.6912963%" y1="6.66104054%" x2="57.9027191%" y2="94.4489796%" id="linearGradient-1">
            <stop stop-color="#00ACA3" offset="0%"></stop>
            <stop stop-color="#00D5CA" offset="100%"></stop>
        </linearGradient>
        <path d="M28.2460975,15.5578089 L15.8600452,3.07905986 C15.0541106,2.26644671 13.7582805,2.26644671 12.9516421,3.07905986 L0.565589804,15.5578089 C-0.635921325,16.7684659 0.203799106,18.8578373 1.89239032,18.8578373 L2.6631312,18.8578373 L2.6631312,27.1959236 C2.6631312,28.537346 3.7379452,29.6352 5.052076,29.6352 L22.7981209,29.6352 C24.1115478,29.6352 25.1870657,28.537346 25.1870657,27.1959236 L25.1870657,18.8578373 L26.919297,18.8578373 C28.6078882,18.8578373 29.4483125,16.7684659 28.2460975,15.5578089" id="path-2"></path>
        <linearGradient x1="5.6912963%" y1="9.03531995%" x2="57.9027191%" y2="92.0138889%" id="linearGradient-4">
            <stop stop-color="#26E9DE" stop-opacity="0.0616531906" offset="0%"></stop>
            <stop stop-color="#1DD8CE" offset="100%"></stop>
        </linearGradient>
        <linearGradient x1="27.4642157%" y1="11.2658026%" x2="86.6472331%" y2="63.2232683%" id="linearGradient-5">
            <stop stop-color="#FFFFFF" stop-opacity="0" offset="0%"></stop>
            <stop stop-color="#24F0E4" offset="100%"></stop>
        </linearGradient>
    </defs>
    <g id="页面-1" stroke="none" stroke-width="1" fill="none" fill-rule="evenodd">
        <g id="工作台弹窗1" transform="translate(-935.000000, -423.000000)">
            <g id="编组-23" transform="translate(320.000000, 150.000000)">
                <g id="编组-15" transform="translate(581.000000, 108.000000)">
                    <g id="人员备份-3" transform="translate(14.000000, 159.000000)">
                        <g id="编组-13" transform="translate(20.000000, 6.000000)">
                            <g id="Group-12" transform="translate(2.800000, 4.900000)">
                                <mask id="mask-3" fill="white">
                                    <use xlink:href="#path-2"></use>
                                </mask>
                                <use id="Mask" fill="url(#linearGradient-1)" opacity="0.900000036" xlink:href="#path-2"></use>
                                <path d="M33.9923289,13.0882089 L21.2523893,0.60945986 C20.4234281,-0.203153287 19.0905743,-0.203153287 18.2608891,0.60945986 L5.52094951,13.0882089 C4.28510949,14.2988659 5.14882194,16.3882373 6.88565861,16.3882373 L7.67842066,16.3882373 L7.67842066,24.7263236 C7.67842066,26.067746 8.78394363,27.1656 10.135621,27.1656 L28.3886957,27.1656 C29.7396492,27.1656 30.8458961,26.067746 30.8458961,24.7263236 L30.8458961,16.3882373 L32.6276198,16.3882373 C34.3644564,16.3882373 35.2288929,14.2988659 33.9923289,13.0882089" id="Fill-1" fill="url(#linearGradient-4)" opacity="0.680268787" mask="url(#mask-3)"></path>
                                <path d="M33.1852975,13.0882089 L20.7992452,0.60945986 C19.9933106,-0.203153287 18.6974805,-0.203153287 17.8908421,0.60945986 L5.5047898,13.0882089 C4.30327867,14.2988659 5.14299911,16.3882373 6.83159032,16.3882373 L7.6023312,16.3882373 L7.6023312,24.7263236 C7.6023312,26.067746 8.6771452,27.1656 9.991276,27.1656 L27.7373209,27.1656 C29.0507478,27.1656 30.1262657,26.067746 30.1262657,24.7263236 L30.1262657,16.3882373 L31.858497,16.3882373 C33.5470882,16.3882373 34.3875125,14.2988659 33.1852975,13.0882089" id="Fill-1" fill="url(#linearGradient-5)" style="mix-blend-mode: multiply;" opacity="0.2"></path>
                                <g id="fenxi-3" transform="translate(8.820000, 13.720000)" fill="#FFFFFF" fill-rule="nonzero">
                                    <path d="M5.03061636,0.99120483 C2.24885892,0.99120483 0.00316932,3.24413859 0.00316932,6.01865187 C0.00316932,8.79316515 2.25610308,11.0460989 5.03061636,11.0460989 C7.80512964,11.0460989 10.0580634,8.79316515 10.0580634,6.01865187 L5.03061636,6.01865187 L5.03061636,0.99120483 Z" id="路径"></path>
                                    <path d="M6.06653124,0.00599907 L6.06653124,5.03344611 L11.0939783,5.03344611 C11.0939783,2.25168867 8.84104452,0.00599907 6.06653124,0.00599907 Z" id="路径"></path>
                                </g>
                            </g>
                        </g>
                    </g>
                </g>
            </g>
        </g>
    </g>
</svg>