<?xml version="1.0" encoding="UTF-8"?>
<svg width="56px" height="56px" viewBox="0 0 56 56" version="1.1" xmlns="http://www.w3.org/2000/svg" xmlns:xlink="http://www.w3.org/1999/xlink">
    <title>政策收集</title>
    <defs>
        <linearGradient x1="150.105964%" y1="25.4625485%" x2="76.6548595%" y2="83.3923931%" id="linearGradient-1">
            <stop stop-color="#00CDBB" offset="0%"></stop>
            <stop stop-color="#00BCAE" offset="100%"></stop>
        </linearGradient>
        <linearGradient x1="10.8979527%" y1="0.530993833%" x2="76.6548595%" y2="83.3923931%" id="linearGradient-2">
            <stop stop-color="#00D9C3" offset="0%"></stop>
            <stop stop-color="#00C9B8" offset="100%"></stop>
        </linearGradient>
        <path d="M32.0892923,5.04 L5.70925385,5.04 C2.56894615,5.04 0,7.6821705 0,10.9101616 L0,29.0063395 C8.79576923,38.8128569 21.2988462,45.0401898 35.2237846,45.36 C36.6630923,45.2135448 37.8,43.9701705 37.8,42.454808 L37.8,10.9101616 C37.8,7.6821705 35.2296,5.04 32.0892923,5.04" id="path-3"></path>
        <linearGradient x1="84.7528591%" y1="9.80707309%" x2="21.7255485%" y2="77.7717921%" id="linearGradient-5">
            <stop stop-color="#FFFFFF" stop-opacity="0.636775362" offset="0%"></stop>
            <stop stop-color="#59C1C3" offset="100%"></stop>
        </linearGradient>
        <linearGradient x1="30.1130499%" y1="6.42847405%" x2="82.339753%" y2="64.874659%" id="linearGradient-6">
            <stop stop-color="#FFFFFF" stop-opacity="0.636775362" offset="0%"></stop>
            <stop stop-color="#00D0B9" offset="100%"></stop>
        </linearGradient>
    </defs>
    <g id="页面-1" stroke="none" stroke-width="1" fill="none" fill-rule="evenodd">
        <g id="工作台" transform="translate(-81.000000, -295.000000)">
            <g id="不同状态下的项目数量" transform="translate(16.000000, 96.000000)">
                <g id="编组-12备份-13" transform="translate(64.000000, 199.000000)">
                    <g id="政策收集" transform="translate(1.000000, 0.000000)">
                        <g id="Group-7" transform="translate(6.000000, 5.000000)">
                            <path d="M5.71070769,5.04 L32.0907462,5.04 C35.2310538,5.04 37.8,7.6821705 37.8,10.9101616 L37.8,29.0063395 C29.0042308,38.8128569 16.5011538,45.0401898 2.57621538,45.36 C1.13690769,45.2135448 0,43.9701705 0,42.454808 L0,10.9101616 C0,7.6821705 2.5704,5.04 5.71070769,5.04" id="Fill-1" fill="url(#linearGradient-1)"></path>
                            <g id="Fill-1">
                                <g id="Fill-2">
                                    <mask id="mask-4" fill="white">
                                        <use xlink:href="#path-3"></use>
                                    </mask>
                                    <use id="Mask" fill="url(#linearGradient-2)" xlink:href="#path-3"></use>
                                    <path d="M13.2707077,0 L39.6507462,0 C42.7910538,0 45.36,2.6421705 45.36,5.8701616 L45.36,23.9663395 C36.5642308,33.7728569 24.0611538,40.0001898 10.1362154,40.32 C8.69690769,40.1735448 7.56,38.9301705 7.56,37.414808 L7.56,5.8701616 C7.56,2.6421705 10.1304,0 13.2707077,0" id="Fill-1" fill="url(#linearGradient-5)" style="mix-blend-mode: multiply;" opacity="0.15" mask="url(#mask-4)" transform="translate(26.460000, 20.160000) scale(-1, 1) translate(-26.460000, -20.160000) "></path>
                                    <path d="M39.7715372,4.97379915e-14 C42.923808,4.97379915e-14 45.504,2.64688866 45.504,5.88064403 L45.504,5.88064403 L45.504,37.4816202 C45.504,38.9996887 44.3627612,40.2452833 42.9179705,40.392 C28.9399846,40.0716187 16.3892769,33.8331656 7.56,24.0091365 L7.56,24.0091365 L7.56,5.88064403 C7.56,2.64688866 10.1387326,9.9475983e-14 13.2910034,9.9475983e-14 L13.2910034,9.9475983e-14 Z" fill="url(#linearGradient-6)" style="mix-blend-mode: multiply;" opacity="0.2"></path>
                                </g>
                                <path d="M20.1702367,15.8481637 L21.8596946,19.1457439 C22.0587399,19.5322277 22.4390298,19.800273 22.8824316,19.8610507 L26.6610563,20.3909076 C27.7744155,20.5467479 28.2194356,21.8635982 27.4135447,22.620982 L24.6786943,25.1876713 C24.3582798,25.488443 24.2126369,25.9201205 24.2886949,26.3440061 L24.9343785,29.9688508 C25.1253326,31.0379151 23.9601892,31.8514013 22.9649625,31.3464789 L19.5844285,29.6353527 C19.1895743,29.4358771 18.7170439,29.4358771 18.3205715,29.6353527 L14.9416557,31.3464789 C13.9448108,31.8514013 12.7812857,31.0379151 12.9706215,29.9688508 L13.6163051,26.3440061 C13.6923631,25.9201205 13.5467202,25.488443 13.2263057,25.1876713 L10.4914553,22.620982 C9.68556443,21.8635982 10.1305845,20.5467479 11.2439437,20.3909076 L15.0225684,19.8610507 C15.4659702,19.800273 15.8478783,19.5322277 16.0453054,19.1457439 L17.7347633,15.8481637 C18.2331858,14.8772788 19.6718142,14.8772788 20.1702367,15.8481637" fill="#FFFFFF"></path>
                            </g>
                        </g>
                    </g>
                </g>
            </g>
        </g>
    </g>
</svg>