<?xml version="1.0" encoding="UTF-8"?>
<svg width="40px" height="40px" viewBox="0 0 40 40" version="1.1" xmlns="http://www.w3.org/2000/svg" xmlns:xlink="http://www.w3.org/1999/xlink">
    <title>数据中心</title>
    <defs>
        <linearGradient x1="16.5513473%" y1="4.37023768%" x2="100%" y2="100%" id="linearGradient-1">
            <stop stop-color="#FF804C" offset="0%"></stop>
            <stop stop-color="#FB6F58" offset="100%"></stop>
        </linearGradient>
        <path d="M15.347919,27.7909506 C22.3764053,27.0809816 27.8621538,21.1473748 27.8621538,13.9310769 C27.8621538,6.23699474 21.6251591,0 13.9310769,0 C6.23699474,0 0,6.23699474 0,13.9310769 C0,17.521167 1.36937326,20.7831029 3.5993775,23.2535472 L2.48798715,26.5887502 C2.27953696,27.2151327 2.74597005,27.8621538 3.40640629,27.8621538 L15.347919,27.7909506 Z" id="path-2"></path>
        <linearGradient x1="105.651244%" y1="100%" x2="18.1644696%" y2="0%" id="linearGradient-4">
            <stop stop-color="#FFE6C2" offset="0%"></stop>
            <stop stop-color="#FFFFFF" offset="100%"></stop>
        </linearGradient>
        <linearGradient x1="34.5003004%" y1="15.048811%" x2="100%" y2="100%" id="linearGradient-5">
            <stop stop-color="#FF6619" stop-opacity="0.0472847465" offset="0%"></stop>
            <stop stop-color="#FA6F51" stop-opacity="0.261582168" offset="100%"></stop>
        </linearGradient>
    </defs>
    <g id="页面-1" stroke="none" stroke-width="1" fill="none" fill-rule="evenodd">
        <g id="工作台弹窗1" transform="translate(-655.000000, -613.000000)">
            <g id="编组-23" transform="translate(320.000000, 150.000000)">
                <g id="编组-6备份" transform="translate(316.000000, 146.000000)">
                    <g id="人员备份-8" transform="translate(0.000000, 312.000000)">
                        <g id="编组-13" transform="translate(19.000000, 5.000000)">
                            <g id="数据中心" transform="translate(2.716000, 3.746400)">
                                <g id="Oval" transform="translate(0.000000, 2.532923)">
                                    <mask id="mask-3" fill="white">
                                        <use xlink:href="#path-2"></use>
                                    </mask>
                                    <use id="Mask" fill="url(#linearGradient-1)" opacity="0.900000036" xlink:href="#path-2"></use>
                                    <circle fill="url(#linearGradient-4)" fill-rule="nonzero" style="mix-blend-mode: multiply;" opacity="0.8" mask="url(#mask-3)" cx="18.9969231" cy="11.3981538" r="13.9310769"></circle>
                                </g>
                                <circle id="Oval" fill="url(#linearGradient-5)" cx="18.9969231" cy="13.9310769" r="13.9310769"></circle>
                                <path d="M19.0367042,12.3020625 C19.2822789,12.5476372 19.2822789,12.9457924 19.0367042,13.1913671 L11.9222671,20.3058042 C11.6766924,20.5513789 11.2785372,20.5513789 11.0329625,20.3058042 C10.7873878,20.0602295 10.7873878,19.6620742 11.0329625,19.4164995 L18.1473995,12.3020625 C18.3929742,12.0564878 18.7911295,12.0564878 19.0367042,12.3020625 Z M21.00875,18.1904333 C21.5296926,18.1904333 21.952,18.6127407 21.952,19.1336833 C21.952,19.6546259 21.5296926,20.0769333 21.00875,20.0769333 L15.9780833,20.0769333 C15.4571407,20.0769333 15.0348333,19.6546259 15.0348333,19.1336833 C15.0348333,18.6127407 15.4571407,18.1904333 15.9780833,18.1904333 L21.00875,18.1904333 Z M10.3185833,10.0156 C10.8395259,10.0156 11.2618333,10.4379074 11.2618333,10.95885 L11.261,12.5306 L12.8339167,12.5309333 C13.3548593,12.5309333 13.7771667,12.9532407 13.7771667,13.4741833 C13.7771667,13.9951259 13.3548593,14.4174333 12.8339167,14.4174333 L11.261,14.4166 L11.2618333,15.9895167 C11.2618333,16.5104593 10.8395259,16.9327667 10.3185833,16.9327667 C9.79764074,16.9327667 9.37533333,16.5104593 9.37533333,15.9895167 L9.375,14.4166 L7.80325,14.4174333 C7.28230741,14.4174333 6.86,13.9951259 6.86,13.4741833 C6.86,12.9532407 7.28230741,12.5309333 7.80325,12.5309333 L9.375,12.5306 L9.37533333,10.95885 C9.37533333,10.4379074 9.79764074,10.0156 10.3185833,10.0156 Z" id="形状结合" fill="#FFFFFF"></path>
                            </g>
                        </g>
                    </g>
                </g>
            </g>
        </g>
    </g>
</svg>