<?xml version="1.0" encoding="UTF-8"?>
<svg width="40px" height="40px" viewBox="0 0 40 40" version="1.1" xmlns="http://www.w3.org/2000/svg" xmlns:xlink="http://www.w3.org/1999/xlink">
    <title>用户中心</title>
    <defs>
        <linearGradient x1="5.6912963%" y1="3.21750559%" x2="57.9027191%" y2="97.9807122%" id="linearGradient-1">
            <stop stop-color="#63C4FF" offset="0%"></stop>
            <stop stop-color="#4D97FF" offset="100%"></stop>
        </linearGradient>
        <path d="M23.5494571,27.4877665 C24.0576816,27.4877665 24.4696815,27.9199472 24.4696815,28.453098 C24.4696815,28.9861842 24.0576816,29.4183972 23.5494571,29.4183972 L3.96126547,29.4183972 C3.45304099,29.4183972 3.04104108,28.9862165 3.04104108,28.453098 C3.04104108,27.9199472 3.45304099,27.4877665 3.96126547,27.4877665 L23.5494571,27.4877665 Z M23.0552603,2.5382 C25.476871,2.5382 27.44,4.59939159 27.44,7.14200654 L27.44,19.2455172 C27.44,21.7880998 25.476871,23.8492914 23.0552603,23.8492914 L4.38473973,23.8492914 C1.96312897,23.8492914 0,21.7880998 0,19.2455494 L0,7.14203881 C0,4.59939159 1.96312897,2.5382 4.38473973,2.5382 L23.0552603,2.5382 Z" id="path-2"></path>
        <linearGradient x1="17.1669804%" y1="-8.32299505%" x2="50%" y2="88.8274263%" id="linearGradient-4">
            <stop stop-color="#FFFFFF" stop-opacity="0.508905157" offset="0%"></stop>
            <stop stop-color="#5DD4FF" stop-opacity="0.013166521" offset="100%"></stop>
        </linearGradient>
        <linearGradient x1="17.1669804%" y1="-8.32299505%" x2="50%" y2="88.8274263%" id="linearGradient-5">
            <stop stop-color="#FFFFFF" stop-opacity="0" offset="0%"></stop>
            <stop stop-color="#C1DAFF" offset="100%"></stop>
        </linearGradient>
    </defs>
    <g id="页面-1" stroke="none" stroke-width="1" fill="none" fill-rule="evenodd">
        <g id="工作台弹窗1" transform="translate(-935.000000, -373.000000)">
            <g id="编组-23" transform="translate(320.000000, 150.000000)">
                <g id="编组-15" transform="translate(581.000000, 108.000000)">
                    <g id="人员备份-2" transform="translate(14.000000, 106.000000)">
                        <g id="编组-12备份-13" transform="translate(20.000000, 9.000000)">
                            <g id="用户中心" transform="translate(2.800000, 3.500000)">
                                <g id="形状-2" transform="translate(0.039200, 0.616000)">
                                    <g id="形状" transform="translate(0.000000, 0.188015)">
                                        <mask id="mask-3" fill="white">
                                            <use xlink:href="#path-2"></use>
                                        </mask>
                                        <use id="蒙版" fill="url(#linearGradient-1)" xlink:href="#path-2"></use>
                                        <path d="M26.7675094,25.6076184 C27.2722001,25.6076184 27.6813354,26.039799 27.6813354,26.5729498 C27.6813354,27.1060361 27.2722001,27.538249 26.7675094,27.538249 L7.31551689,27.538249 C6.81082616,27.538249 6.40169093,27.1060684 6.40169093,26.5729498 C6.40169093,26.039799 6.81082616,25.6076184 7.31551689,25.6076184 L26.7675094,25.6076184 Z M26.2767488,0.658051852 C28.6815218,0.658051852 30.6310008,2.71924344 30.6310008,5.26185839 L30.6310008,17.365369 C30.6310008,19.9079517 28.6815218,21.9691433 26.2767488,21.9691433 L7.73604668,21.9691433 C5.33127368,21.9691433 3.38179459,19.9079517 3.38179459,17.3654013 L3.38179459,5.26189066 C3.38179459,2.71924344 5.33127368,0.658051852 7.73604668,0.658051852 L26.2767488,0.658051852 Z" fill-opacity="0.6" fill="url(#linearGradient-4)" style="mix-blend-mode: multiply;" opacity="0.4" mask="url(#mask-3)"></path>
                                        <path d="M28.4139094,25.6076184 C28.9186001,25.6076184 29.3277354,26.039799 29.3277354,26.5729498 C29.3277354,27.1060361 28.9186001,27.538249 28.4139094,27.538249 L8.96191689,27.538249 C8.45722616,27.538249 8.04809093,27.1060684 8.04809093,26.5729498 C8.04809093,26.039799 8.45722616,25.6076184 8.96191689,25.6076184 L28.4139094,25.6076184 Z M27.9231488,0.658051852 C30.3279218,0.658051852 32.2774008,2.71924344 32.2774008,5.26185839 L32.2774008,17.365369 C32.2774008,19.9079517 30.3279218,21.9691433 27.9231488,21.9691433 L9.38244668,21.9691433 C6.97767368,21.9691433 5.02819459,19.9079517 5.02819459,17.3654013 L5.02819459,5.26189066 C5.02819459,2.71924344 6.97767368,0.658051852 9.38244668,0.658051852 L27.9231488,0.658051852 Z" fill="url(#linearGradient-5)" style="mix-blend-mode: multiply;" opacity="0.8"></path>
                                        <g id="用户" transform="translate(7.840000, 6.860000)" fill-rule="nonzero">
                                            <rect id="矩形" fill="#000000" opacity="0" x="0" y="0" width="12.0736" height="12.0736"></rect>
                                            <path d="M5.90759142,0.741999182 C7.3891405,0.741999182 8.59010823,1.92336062 8.59010823,3.38045308 C8.59010823,4.83783513 7.38915256,6.01925688 5.90759142,6.01925688 C4.42609061,6.01925688 3.22514699,4.83784719 3.22514699,3.38045308 C3.22514699,1.92302278 4.42648876,0.741999182 5.90759142,0.741999182 L5.90759142,0.741999182 L5.90759142,0.741999182 Z M5.90759142,0.741999182 C7.3891405,0.741999182 8.59010823,1.92336062 8.59010823,3.38045308 C8.59010823,4.83783513 7.38915256,6.01925688 5.90759142,6.01925688 C4.42609061,6.01925688 3.22514699,4.83784719 3.22514699,3.38045308 C3.22514699,1.92302278 4.42648876,0.741999182 5.90759142,0.741999182 L5.90759142,0.741999182 L5.90759142,0.741999182 Z M4.90172152,6.89899489 L7.1375765,6.89899489 C9.05136924,6.89899489 10.6026082,8.42455861 10.6026082,10.3071622 L10.6026082,10.5267287 C10.6026082,11.2686193 9.05104346,11.2968162 7.1375765,11.2968162 L4.90172152,11.2968162 C2.98786846,11.2968162 1.43668985,11.2957303 1.43668985,10.5267288 L1.43668985,10.3071622 C1.43668985,8.42455861 2.98788052,6.89899489 4.90172152,6.89899489 L4.90172152,6.89899489 L4.90172152,6.89899489 Z" id="形状" fill="#FFFFFF"></path>
                                        </g>
                                    </g>
                                </g>
                            </g>
                        </g>
                    </g>
                </g>
            </g>
        </g>
    </g>
</svg>