<?xml version="1.0" encoding="UTF-8"?>
<svg width="56px" height="56px" viewBox="0 0 56 56" version="1.1" xmlns="http://www.w3.org/2000/svg" xmlns:xlink="http://www.w3.org/1999/xlink">
    <title>重大专项</title>
    <defs>
        <linearGradient x1="0%" y1="6.52848795%" x2="100%" y2="93.4715121%" id="linearGradient-1">
            <stop stop-color="#F9AA22" offset="0%"></stop>
            <stop stop-color="#F9A022" offset="100%"></stop>
        </linearGradient>
        <path d="M34.3466667,37.5956757 L5.97333333,37.5956757 C2.688,37.5956757 0,34.9928981 0,31.8117256 L0,5.7839501 C0,2.60277755 2.688,0 5.97333333,0 L19.96288,0 C20.97088,0 21.9221333,0.452594096 22.53888,1.22330545 L24.5802667,3.77691942 C24.8625067,4.13118636 25.29856,4.33796258 25.76,4.33796258 L34.3466667,4.33796258 C37.632,4.33796258 40.32,6.94074012 40.32,10.1219127 L40.32,31.8117256 C40.32,34.9928981 37.632,37.5956757 34.3466667,37.5956757" id="path-2"></path>
        <linearGradient x1="80.7678862%" y1="86.4515238%" x2="17.882055%" y2="3.17377732%" id="linearGradient-4">
            <stop stop-color="#FFE6C2" offset="0%"></stop>
            <stop stop-color="#FFFFFF" stop-opacity="0" offset="100%"></stop>
        </linearGradient>
    </defs>
    <g id="页面-1" stroke="none" stroke-width="1" fill="none" fill-rule="evenodd">
        <g id="工作台" transform="translate(-225.000000, -176.000000)">
            <g id="不同状态下的项目数量" transform="translate(16.000000, 96.000000)">
                <g id="编组-12备份" transform="translate(209.000000, 80.000000)">
                    <g id="编组-14" transform="translate(5.000000, 5.000000)">
                        <g id="Fill-1" transform="translate(0.000000, 5.012757)">
                            <mask id="mask-3" fill="white">
                                <use xlink:href="#path-2"></use>
                            </mask>
                            <use id="Mask" fill="url(#linearGradient-1)" xlink:href="#path-2"></use>
                        </g>
                        <path d="M40.6126126,37.5956757 L13.2745225,37.5956757 C10.1090595,37.5956757 7.51913514,34.9928981 7.51913514,31.8117256 L7.51913514,5.7839501 C7.51913514,2.60277755 10.1090595,-3.37507799e-13 13.2745225,-3.37507799e-13 L26.7536398,-3.37507799e-13 C27.7248614,-3.37507799e-13 28.6414068,0.452594096 29.2356506,1.22330545 L31.2025542,3.77691942 C31.4744963,4.13118636 31.8946396,4.33796258 32.3392432,4.33796258 L40.6126126,4.33796258 C43.7780757,4.33796258 46.368,6.94074012 46.368,10.1219127 L46.368,31.8117256 C46.368,34.9928981 43.7780757,37.5956757 40.6126126,37.5956757" id="Fill-1" fill="url(#linearGradient-4)" fill-rule="nonzero" style="mix-blend-mode: multiply;" opacity="0.800000012"></path>
                        <g id="重要任务" transform="translate(10.080000, 15.840000)" fill="#FFFFFF" fill-rule="nonzero">
                            <path d="M8.64432331,0.000121358572 C8.27838534,-0.00561503946 7.94171479,0.192411888 7.77966081,0.508835636 L5.82552357,4.30239867 C5.70026172,4.54338786 5.46189643,4.71111152 5.18567332,4.75262373 L0.814804387,5.36126132 C0.456837691,5.40986899 0.158816275,5.65078209 0.0467081189,5.98217122 C-0.0654000371,6.31356035 0.0279730149,6.67758313 0.287360263,6.92037404 L3.45634832,9.87184945 C3.65948131,10.062072 3.75314979,10.3361458 3.70710044,10.6055496 L2.95916738,14.7743001 C2.90641313,15.1120783 3.05271179,15.4501379 3.33881471,15.6515701 C3.62491764,15.8530023 4.00341094,15.8844251 4.32101082,15.7331128 L8.21199206,13.7654625 C8.4637314,13.6379662 8.76438885,13.6379662 9.01612819,13.7654625 L12.9071094,15.7331128 C13.2271147,15.8967495 13.6157328,15.8709179 13.9094248,15.6664885 C14.2031167,15.4620591 14.3508943,15.1145232 14.2905694,14.7701314 L13.5426364,10.6013808 C13.5077637,10.326934 13.6162641,10.0536691 13.8322983,9.87184945 L16.9926397,6.92037404 C17.252027,6.67758313 17.3454,6.31356035 17.2332919,5.98217122 C17.1211837,5.65078209 16.8231623,5.40986899 16.4651956,5.36126132 L12.1029733,4.75262373 C11.8235401,4.71364282 11.5814448,4.54556585 11.4544764,4.30239867 L9.50898581,0.508835636 C9.34693184,0.192411888 9.01026128,-0.00561503946 8.64432331,0.000121358572 Z" id="形状"></path>
                        </g>
                    </g>
                </g>
            </g>
        </g>
    </g>
</svg>