<?xml version="1.0" encoding="UTF-8"?>
<svg width="40px" height="40px" viewBox="0 0 40 40" version="1.1" xmlns="http://www.w3.org/2000/svg" xmlns:xlink="http://www.w3.org/1999/xlink">
    <title>门户首页</title>
    <defs>
        <linearGradient x1="5.6912963%" y1="6.66104054%" x2="57.9027191%" y2="94.4489796%" id="linearGradient-1">
            <stop stop-color="#63C4FF" offset="0%"></stop>
            <stop stop-color="#4D97FF" offset="100%"></stop>
        </linearGradient>
        <path d="M28.2460975,15.5578089 L15.8600452,3.07905986 C15.0541106,2.26644671 13.7582805,2.26644671 12.9516421,3.07905986 L0.565589804,15.5578089 C-0.635921325,16.7684659 0.203799106,18.8578373 1.89239032,18.8578373 L2.6631312,18.8578373 L2.6631312,27.1959236 C2.6631312,28.537346 3.7379452,29.6352 5.052076,29.6352 L22.7981209,29.6352 C24.1115478,29.6352 25.1870657,28.537346 25.1870657,27.1959236 L25.1870657,18.8578373 L26.919297,18.8578373 C28.6078882,18.8578373 29.4483125,16.7684659 28.2460975,15.5578089" id="path-2"></path>
        <linearGradient x1="17.1669804%" y1="-3.28125208%" x2="50%" y2="85.4709816%" id="linearGradient-4">
            <stop stop-color="#FFFFFF" stop-opacity="0" offset="0%"></stop>
            <stop stop-color="#C1DAFF" offset="100%"></stop>
        </linearGradient>
    </defs>
    <g id="页面-1" stroke="none" stroke-width="1" fill="none" fill-rule="evenodd">
        <g id="工作台弹窗1" transform="translate(-381.000000, -665.000000)">
            <g id="编组-23" transform="translate(320.000000, 150.000000)">
                <g id="编组-6" transform="translate(42.000000, 146.000000)">
                    <g id="人员备份-9" transform="translate(0.000000, 364.000000)">
                        <g id="编组-13" transform="translate(19.000000, 5.000000)">
                            <g id="Group-12" transform="translate(2.800000, 4.900000)">
                                <mask id="mask-3" fill="white">
                                    <use xlink:href="#path-2"></use>
                                </mask>
                                <use id="Mask" fill="url(#linearGradient-1)" xlink:href="#path-2"></use>
                                <path d="M33.1852975,13.0882089 L20.7992452,0.60945986 C19.9933106,-0.203153287 18.6974805,-0.203153287 17.8908421,0.60945986 L5.5047898,13.0882089 C4.30327867,14.2988659 5.14299911,16.3882373 6.83159032,16.3882373 L7.6023312,16.3882373 L7.6023312,24.7263236 C7.6023312,26.067746 8.6771452,27.1656 9.991276,27.1656 L27.7373209,27.1656 C29.0507478,27.1656 30.1262657,26.067746 30.1262657,24.7263236 L30.1262657,16.3882373 L31.858497,16.3882373 C33.5470882,16.3882373 34.3875125,14.2988659 33.1852975,13.0882089" id="Fill-1" fill="url(#linearGradient-4)" style="mix-blend-mode: multiply;" opacity="0.8"></path>
                                <path d="M15.9127708,16.4077335 C17.4212728,16.4077335 18.6443271,17.6307878 18.6443271,19.1390166 C18.6443271,21.6319714 13.7049905,24.9430273 13.7049905,24.9430273 C13.7049905,24.9430273 8.76592709,21.7513404 8.76592709,19.1390166 C8.76592709,17.2612082 9.9889814,16.4077335 11.4972102,16.4077335 C12.4057258,16.4077335 13.208257,16.8532503 13.7049905,17.5354565 C14.2018606,16.8532503 15.0043918,16.4077335 15.9127708,16.4077335 Z" id="路径" fill="#FFFFFF" fill-rule="nonzero"></path>
                            </g>
                        </g>
                    </g>
                </g>
            </g>
        </g>
    </g>
</svg>